<?xml version="1.0" standalone="no"?>
<!DOCTYPE svg PUBLIC "-//W3C//DTD SVG 1.1//EN" "http://www.w3.org/Graphics/SVG/1.1/DTD/svg11.dtd" >
<svg xmlns="http://www.w3.org/2000/svg">
<metadata>Generated by IcoMoon</metadata>
<defs>
<font id="icomoon" horiz-adv-x="1024">
<font-face units-per-em="1024" ascent="960" descent="-64" />
<missing-glyph horiz-adv-x="1024" />
<glyph unicode="&#x20;" horiz-adv-x="512" d="" />
<glyph unicode="&#xe900;" glyph-name="dropbox" d="M256 882.901l-256-163.072 256-163.072 256.043 163.072-256.043 163.072zM768 882.901l-256-163.072 256-163.072 256 163.072-256 163.072zM0 393.643l256-163.072 256.043 163.072-256.043 163.072-256-163.072zM768 556.715l-256-163.072 256-163.072 256 163.072-256 163.072zM256 176.171l256.043-163.072 256 163.072-256 163.072-256.043-163.072z" />
<glyph unicode="&#xe901;" glyph-name="microsoft" d="M486.4-64h-486.4v486.4h486.4v-486.4zM1024-64h-486.4v486.4h486.4v-486.4zM486.4 473.6h-486.4v486.4h486.4v-486.4zM1024 473.6h-486.4v486.4h486.4v-486.4z" />
<glyph unicode="&#xe902;" glyph-name="bigcartel" d="M512 402.432v42.923c0 26.88 10.752 53.589 37.547 64.341l332.373 209.067c21.461 10.752 32.213 37.547 32.213 64.427v176.811l-402.133-257.28-402.133 257.28v-541.44c0-144.811 64.427-268.117 171.52-337.792l225.28-144.768 225.28 144.768c107.221 64.427 171.52 187.648 171.52 337.749v241.28l-391.467-257.365z" />
<glyph unicode="&#xe903;" glyph-name="microsoftword" d="M1023.957 800.725v-706.005c0-6.016-2.133-10.88-6.357-14.763-4.309-4.011-9.429-5.888-15.36-5.888h-365.184v97.92h297.899v44.587h-298.155v54.571h297.899v44.544h-297.685v55.040h297.813v44.032h-297.813v55.168h297.813v44.544h-297.813v54.571h297.813v44.501h-297.813v55.68h297.813v42.411h-297.813v110.635h365.312c6.357 0 11.52-2.048 15.275-6.357 4.48-4.224 6.4-9.387 6.357-15.189zM582.4 932.651v-969.472l-582.4 100.779v765.184l582.4 103.509zM494.507 646.443l-72.917-4.48-46.763-289.493h-1.067c-2.304 13.696-10.88 61.653-26.24 143.659l-27.264 139.221-68.437-3.413-27.392-135.808c-16-79.104-24.917-125.141-27.264-138.069h-0.64l-41.6 266.667-62.72-3.328 67.2-336.341 69.717-4.48 26.24 130.901c15.36 76.8 24.32 121.429 26.24 133.632h1.92c2.603-13.013 10.923-58.624 26.24-136.96l26.24-134.741 75.52-4.48 84.48 377.6h-1.493z" />
<glyph unicode="&#xe904;" glyph-name="javascript" d="M0 960h1024v-1024h-1024v1024zM940.117 180.224c-7.467 46.72-37.888 85.973-128.128 122.581-31.403 14.72-66.304 24.96-76.672 48.64-3.883 14.080-4.48 21.76-1.963 30.080 6.4 27.563 39.040 35.84 64.64 28.16 16.64-5.12 32-17.92 41.643-38.4 44.117 28.843 44.117 28.843 74.88 48-11.52 17.92-17.237 25.643-25.003 33.28-26.88 30.080-62.677 45.44-120.917 44.117l-30.080-3.797c-28.843-7.040-56.32-22.4-72.96-42.88-48.64-55.083-34.603-151.083 24.277-190.763 58.24-43.52 143.403-53.077 154.283-94.080 10.24-49.92-37.12-65.92-83.883-60.16-34.603 7.68-53.76 25.003-74.88 57.003l-78.080-44.843c8.96-20.48 19.2-29.397 34.56-47.317 74.24-74.923 259.84-71.083 293.163 42.837 1.237 3.84 10.24 30.080 3.157 70.4l1.963-2.859zM556.843 489.344h-95.915c0-82.688-0.384-164.864-0.384-247.68 0-52.565 2.688-100.821-5.888-115.669-14.080-29.397-50.347-25.643-66.816-20.48-16.896 8.363-25.472 19.883-35.413 36.48-2.688 4.48-4.693 8.363-5.419 8.363l-77.867-48c13.013-26.88 32-50.005 56.491-64.725 36.48-21.76 85.504-28.8 136.832-17.28 33.408 9.643 62.208 29.483 77.269 60.203 21.76 39.68 17.152 88.32 16.939 142.763 0.512 87.637 0 175.317 0 263.637l0.171 2.389z" />
<glyph unicode="&#xe905;" glyph-name="linux" d="M533.461 960c-6.613 0-13.44-0.341-20.437-0.896-180.352-14.208-132.523-205.099-135.253-268.715-3.285-46.635-12.8-83.371-44.843-128.896-37.76-44.843-90.752-117.333-115.883-192.896-11.861-35.499-17.493-71.851-12.245-106.197-1.664-1.451-3.243-2.901-4.736-5.76-11.093-11.435-19.157-25.643-28.245-35.797-8.491-8.491-20.693-11.392-34.005-17.067-13.355-5.803-28.075-11.477-36.864-29.056-3.84-8.021-5.803-16.768-5.632-25.643 0-8.491 1.152-17.109 2.347-22.869 2.475-17.024 4.949-31.104 1.664-41.387-10.581-29.013-11.904-48.896-4.48-63.36 7.424-14.251 22.827-20.011 40.064-25.643 34.603-8.533 81.493-5.76 118.4-25.557 39.509-19.925 79.616-28.629 111.616-20.053 22.443 4.907 41.387 19.755 51.541 40.32 25.045 0.128 52.48 11.477 96.427 14.251 29.824 2.475 67.157-11.392 109.995-8.491 1.067-5.76 2.688-8.491 4.864-14.251l0.128-0.128c16.683-33.195 47.488-48.299 80.384-45.696 32.896 2.56 67.925 22.869 96.299 55.723 26.923 32.64 71.808 46.251 101.461 64.128 14.848 8.491 26.837 20.011 27.691 36.395 0.981 17.067-8.491 34.645-30.464 58.752v4.139l-0.128 0.128c-7.253 8.533-10.667 22.827-14.421 39.509-3.627 17.109-7.765 33.536-20.992 44.629h-0.128c-2.517 2.304-5.248 2.859-8.021 5.76-2.389 1.621-5.163 2.645-8.107 2.731 18.389 54.528 11.264 108.8-7.381 157.611-22.741 60.16-62.507 112.555-92.8 148.608-33.963 42.88-67.243 83.499-66.603 143.744 1.152 91.819 10.112 261.675-151.211 261.931zM556.032 814.72h0.555c9.088 0 16.896-2.645 24.917-8.448 8.149-5.76 14.080-14.165 18.731-22.741 4.48-11.051 6.741-19.584 7.083-30.891 0 0.853 0.256 1.707 0.256 2.517v-4.437c-0.085 0.299-0.171 0.64-0.171 0.896l-0.171 1.024c-0.085-10.368-2.261-20.608-6.4-30.123-2.005-5.333-5.077-10.24-9.088-14.293-1.237 0.683-2.432 1.28-3.755 1.792-4.48 1.92-8.491 2.731-12.16 5.675-3.029 1.195-6.187 2.176-9.344 2.816 2.091 2.517 6.187 5.675 7.765 8.448 2.261 5.461 3.499 11.264 3.755 17.152v0.811c0.085 5.76-0.768 11.563-2.603 17.067-1.92 5.76-4.309 8.576-7.808 14.251-3.584 2.816-7.125 5.632-11.392 5.632h-0.683c-3.968 0-7.509-1.28-11.179-5.632-4.053-4.011-7.083-8.832-8.747-14.251-2.261-5.419-3.584-11.264-3.84-17.067v-0.811c0.085-3.797 0.341-7.637 0.853-11.392-8.235 2.859-18.688 5.76-25.899 8.619-0.427 2.773-0.683 5.632-0.768 8.491v0.853c-0.341 11.264 1.835 22.443 6.4 32.811 3.499 9.344 9.899 17.323 18.347 22.741 7.296 5.504 16.171 8.491 25.344 8.491zM429.653 812.203h1.536c6.059 0 11.52-2.048 17.024-5.76 6.229-5.504 11.264-12.288 14.677-19.84 3.84-8.491 6.016-17.109 6.528-28.459v-0.171c0.299-5.717 0.256-8.576-0.085-11.349v-3.413c-1.28-0.299-2.389-0.768-3.541-1.024-6.485-2.347-11.691-5.76-16.768-8.533 0.512 3.797 0.555 7.637 0.128 11.392v0.64c-0.512 5.675-1.664 8.491-3.499 14.208-1.323 4.352-3.755 8.235-7.083 11.392-2.091 1.92-4.907 2.901-7.808 2.731h-0.896c-3.029-0.256-5.547-1.749-7.936-5.632-2.731-3.285-4.48-7.296-5.12-11.52-1.152-4.608-1.493-9.344-0.981-14.123v-0.597c0.512-5.76 1.579-8.576 3.456-14.251 1.92-5.717 4.139-8.533 7.040-11.435 0.469-0.384 0.896-0.768 1.451-1.024-2.987-2.432-4.992-2.987-7.509-5.803-1.579-1.195-3.413-2.56-5.589-2.901-4.437 5.333-8.363 11.093-11.733 17.152-4.096 8.96-6.229 18.688-6.613 28.459-0.725 9.643 0.469 19.285 3.413 28.501 2.347 8.405 6.485 16.171 12.075 22.827 5.461 5.675 11.093 8.533 17.835 8.533zM488.149 739.413c14.123 0 31.232-2.773 51.84-17.024 12.501-8.533 22.315-11.477 44.928-19.968h0.128c10.88-5.803 17.28-11.349 20.395-17.024v5.589c3.115-6.272 3.328-13.568 0.683-20.053-5.248-13.269-22.016-27.477-45.397-35.968v-0.085c-11.435-5.76-21.376-14.208-33.067-19.84-11.776-5.76-25.088-12.459-43.179-11.392-6.485-0.341-13.013 0.64-19.115 2.859-4.693 2.56-9.301 5.376-13.739 8.448-8.32 5.76-15.488 14.165-26.112 19.84v0.213h-0.213c-17.067 10.496-26.283 21.845-29.269 30.336-2.944 11.435-0.213 20.011 8.235 25.6 9.557 5.76 16.213 11.563 20.608 14.336 4.437 3.157 6.101 4.352 7.509 5.589h0.085v0.128c7.211 8.619 18.603 20.011 35.797 25.643 5.931 1.536 12.544 2.773 19.883 2.773zM607.573 647.979c15.317-60.459 51.072-148.267 74.069-190.848 12.203-22.784 36.48-70.784 47.019-129.024 6.656 0.213 14.037-0.768 21.888-2.731 27.563 71.296-23.296 147.925-46.464 169.216-9.429 8.576-9.899 14.293-5.248 14.293 25.131-22.784 58.24-67.072 70.229-117.632 5.504-22.827 6.784-47.104 0.896-71.253 2.859-1.195 5.76-2.603 8.747-2.859 44.032-22.784 60.288-40.021 52.48-65.579v1.835c-2.603 0.128-5.12 0-7.723 0h-0.64c6.443 19.925-7.765 35.2-45.44 52.224-39.040 17.067-70.229 14.336-75.563-19.84-0.299-1.835-0.512-2.816-0.725-5.76-2.901-0.981-5.931-2.261-8.917-2.731-18.347-11.435-28.245-28.544-33.835-50.645-5.547-22.741-7.253-49.323-8.747-79.744v-0.128c-0.896-14.251-7.296-35.755-13.611-57.643-64-45.739-152.747-65.621-228.224-14.251-4.736 8.235-10.496 15.957-17.152 22.741-3.157 5.333-7.168 10.112-11.733 14.251 7.765 0 14.421 1.237 19.84 2.859 6.187 2.859 10.965 8.021 13.397 14.251 4.608 11.392 0 29.739-14.72 49.621-14.72 19.925-39.723 42.453-76.288 64.896-26.88 17.024-42.069 37.12-49.067 59.563-7.040 22.784-6.101 46.293-0.64 70.187 10.453 45.653 37.248 90.027 54.357 117.888 4.565 2.773 1.579-5.76-17.408-41.557-16.896-32.043-48.683-106.539-5.205-164.437 1.621 42.197 11.008 83.84 27.605 122.709 24.064 54.528 74.368 149.504 78.336 224.768 2.048-1.536 9.259-5.76 12.331-8.619 9.301-5.675 16.213-14.208 25.173-19.84 9.003-8.576 20.352-14.293 37.376-14.293 1.664-0.128 3.2-0.256 4.736-0.256 17.536 0 31.104 5.717 42.496 11.435 12.373 5.717 22.229 14.251 31.573 17.067h0.213c19.925 5.76 35.669 17.152 44.587 29.867zM700.843 265.771c1.579-25.643 14.635-53.12 37.632-58.752 25.088-5.717 61.184 14.208 76.416 32.64l9.003 0.384c13.44 0.341 24.619-0.427 36.139-11.392l0.128-0.128c8.875-8.491 13.013-22.656 16.683-37.376 3.627-17.109 6.571-33.28 17.451-45.483 20.736-22.485 27.52-38.656 27.136-48.64l0.128 0.256v-0.768l-0.128 0.512c-0.64-11.179-7.893-16.896-21.248-25.387-26.88-17.109-74.496-30.379-104.832-66.987-26.368-31.445-58.496-48.597-86.869-50.816-28.331-2.261-52.779 8.533-67.157 38.315l-0.213 0.128c-8.96 17.109-5.12 43.733 2.389 72.107 7.509 28.501 18.261 57.387 19.755 80.981 1.579 30.464 3.243 56.96 8.32 77.397 5.12 19.84 13.141 34.005 27.349 41.984l1.92 0.939zM239.403 263.68h0.427c2.261 0 4.48-0.213 6.699-0.597 16.043-2.347 30.123-14.208 43.648-32.085l38.827-70.997 0.128-0.128c10.368-22.741 32.171-45.397 50.731-69.888 18.517-25.515 32.853-48.256 31.104-66.987v-0.256c-2.432-31.744-20.437-48.981-48-55.211-27.52-5.76-64.853-0.085-102.187 19.797-41.301 22.869-90.368 20.011-121.899 25.685-15.744 2.816-26.069 8.576-30.848 17.109-4.736 8.491-4.821 25.643 5.248 52.48v0.128l0.085 0.128c4.992 14.251 1.28 32.128-1.152 47.744-2.347 17.109-3.541 30.251 1.835 40.107 6.827 14.251 16.896 17.024 29.397 22.741 12.587 5.76 27.349 8.619 39.083 20.011h0.085v0.128c10.923 11.435 18.987 25.643 28.501 35.755 8.107 8.576 16.213 14.336 28.288 14.336zM544.853 650.837c-18.56-8.576-40.32-22.827-63.488-22.827-23.125 0-41.387 11.392-54.571 19.883-6.613 5.717-11.947 11.435-15.957 14.293-6.997 5.717-6.144 14.251-3.157 14.251 4.651-0.683 5.504-5.76 8.491-8.576 4.096-2.816 9.173-8.491 15.403-14.208 12.416-8.533 29.013-19.925 49.749-19.925 20.693 0 44.928 11.392 59.648 19.883 8.32 5.76 18.987 14.251 27.648 19.925 6.656 5.845 6.357 11.435 11.904 11.435 5.504-0.683 1.451-5.717-6.272-14.208-7.723-5.76-19.669-14.293-29.44-19.968v0.043zM498.688 718.421v0.939c-0.256 0.811 0.555 1.792 1.237 2.133 3.157 1.835 7.68 1.152 11.093-0.171 2.688 0 6.827-2.859 6.4-5.76-0.256-2.091-3.627-2.816-5.76-2.816-2.347 0-3.925 1.835-6.016 2.901-2.219 0.768-6.229 0.341-6.955 2.773zM475.179 718.421c-0.853-2.475-4.821-2.091-7.083-2.816-2.005-1.067-3.669-2.901-5.931-2.901-2.176 0-5.589 0.811-5.845 2.901-0.384 2.816 3.755 5.675 6.4 5.675 3.456 1.323 7.851 2.005 11.051 0.213 0.811-0.384 1.536-1.28 1.28-2.133v-0.896h0.128z" />
<glyph unicode="&#xe906;" glyph-name="gmail" d="M1024 768v-640c0-36.267-27.733-64-64-64h-64v580.821l-384-275.755-384 275.755v-580.821h-64c-36.309 0-64 27.733-64 64v640c0 18.133 6.912 34.133 18.389 45.568 11.477 11.605 27.52 18.432 45.611 18.432h21.333l426.667-309.333 426.667 309.333h21.333c18.133 0 34.133-6.912 45.611-18.432 11.52-11.435 18.389-27.435 18.389-45.568z" />
<glyph unicode="&#xe907;" glyph-name="android" d="M944.896 566.315c0 34.773-28.075 63.061-62.976 63.061s-63.147-28.16-63.147-63.147v-264.107c0-34.56 28.288-63.147 63.275-63.147 34.731 0 62.976 28.587 62.976 63.147v264.533h-0.427zM230.101 617.301l0.171-409.6c0-37.76 30.037-67.84 67.115-67.84h45.355v-139.947c0-34.987 28.16-63.232 62.72-63.232s62.592 28.16 63.147 62.635v139.947h85.035v-139.947c0-35.115 28.16-63.275 62.72-63.275 35.115 0 63.232 28.16 63.232 63.573v139.947h45.995c37.12 0 67.115 30.293 67.115 67.328v410.88l-562.731-0.469zM641.749 742.315c-13.227 0-23.893 10.667-23.893 23.893 0 13.013 10.667 23.808 23.893 23.893 13.227 0 23.893-10.88 23.893-23.893 0-13.227-10.667-23.893-23.893-23.893zM383.189 742.315c-13.227 0-23.893 10.667-23.893 23.893 0 13.099 10.667 23.808 23.893 23.808s23.893-10.88 23.893-24.32-10.752-24.192-24.32-24.192zM651.136 865.237l43.904 80.683c2.56 4.48 0.597 9.643-3.243 12.16-4.437 1.92-9.557 0.64-12.117-3.84l-44.8-81.067c-37.035 17.28-79.189 26.88-123.307 26.88s-86.101-9.173-123.392-25.728l-44.117 81.195c-2.261 4.181-7.68 5.76-11.861 3.413-4.267-1.92-5.803-7.68-3.413-11.52l43.947-80c-86.613-44.672-145.067-129.707-145.067-227.413h568.661c0 97.707-58.368 182.741-144.896 227.413zM142.080 629.675c-34.859 0-63.147-28.373-63.147-63.275v-264.192c0-34.987 28.331-63.147 63.317-63.147 34.731 0 63.019 28.16 63.019 63.147v264.107c0 34.773-28.16 63.061-62.72 63.061z" />
<glyph unicode="&#xe908;" glyph-name="khanacademy" d="M105.344 4.48s-157.781 377.259 125.099 658.56c256.597 255.616 644.224 295.211 711.467 296.96 0 0 104.021-341.589-155.776-728.789-259.541-387.2-619.563-282.197-619.563-282.197s355.669 453.376 312.832 450.603c-29.909-1.749-216.576-207.189-374.101-395.221z" />
<glyph unicode="&#xe909;" glyph-name="microsoftexcel" d="M1004.928 827.648h-343.040v-63.488h101.12v-100.437h-101.12v-32h101.12v-100.565h-101.12v-32.896h101.12v-95.104h-101.12v-38.101h101.12v-95.317h-101.12v-38.101h101.12v-95.872h-101.12v-69.931h343.040c5.419 1.621 9.941 8.021 13.568 19.115 3.627 11.179 5.504 20.267 5.504 27.136v703.957c0 5.461-1.877 8.747-5.504 9.899-3.627 1.109-8.149 1.707-13.568 1.707zM960.427 135.851h-164.565v95.787h164.565v-95.787zM960.427 269.739h-164.565v95.36h164.565v-95.36zM960.427 403.2h-164.565v94.677h164.565v-94.677zM960.427 531.2h-164.565v100.437h164.565v-100.437zM960.427 664.277h-164.565v99.84h164.565v-99.84zM0 843.477v-793.643l604.16-104.491v1005.312l-604.16-107.179zM358.101 243.115c-2.304 6.229-13.141 32.683-32.341 79.488-19.157 46.763-30.72 73.984-34.091 81.749h-1.067l-64.811-154.24-86.613 5.845 102.741 192-94.080 192 88.32 4.651 58.368-150.229h1.152l65.92 157.056 91.264 5.76-108.672-207.787 112-211.968-98.091 5.675z" />
<glyph unicode="&#xe90a;" glyph-name="gitlab" d="M1022.080 380.288l-57.259 176.427-113.664 349.397c-5.76 18.048-31.147 18.048-36.992 0l-113.664-349.312h-377.003l-113.621 349.312c-5.803 18.048-31.317 18.048-37.077 0.128l-113.664-349.397-57.259-176.555c-5.163-16 0.597-33.664 14.123-43.648l496-360.277 496 360.235c13.568 10.027 19.328 27.605 14.080 43.691z" />
<glyph unicode="&#xe90b;" glyph-name="koding" d="M34.133 960h947.2v-256h-938.667v256zM34.133 576h733.867v-256h-738.133v256zM34.133 192h947.2v-256h-938.667v256z" />
<glyph unicode="&#xe90c;" glyph-name="moo" d="M510.464-64c-107.733 0-204.843 47.232-270.507 133.888-47.317 60.459-70.869 131.328-70.869 207.36 0 23.68 2.56 47.317 7.893 68.352 12.757 76.16 67.84 199.595 167.68 370.261 73.685 126.080 133.845 220.501 137.003 220.501 5.248 10.496 13.141 23.637 28.8 23.637 15.872 0 23.68-13.141 31.616-23.68 0 0 63.019-94.507 136.491-220.501 99.925-170.667 154.923-294.101 168.064-370.261 5.589-20.992 8.235-44.587 8.235-68.267 0-76.16-23.68-146.987-70.4-207.403-69.12-84.139-169.045-133.888-274.005-133.888zM510.464 25.259c81.28 0 154.837 36.736 204.843 99.883 34.091 44.544 52.437 99.712 52.437 157.44 0 18.432-2.517 34.176-5.248 52.437-10.496 57.771-55.168 157.525-131.157 291.541-57.899 102.357-107.733 175.829-107.733 175.829l-13.227 18.475-10.837-15.787s-49.963-76.16-107.563-176c-78.635-134.357-123.435-233.557-131.072-291.797-2.603-18.389-5.248-34.133-5.248-52.437 0-57.813 18.304-110.379 52.437-157.568 47.36-65.621 120.789-102.357 202.24-102.357l0.128 0.341z" />
<glyph unicode="&#xe90d;" glyph-name="java" d="M377.643 168.107s-39.125-22.784 27.861-30.464c81.152-9.301 122.624-7.979 212.011 9.003 0 0 23.552-14.763 56.363-27.563-200.491-85.888-453.675 5.035-296.235 49.024zM353.109 280.192s-43.861-32.469 23.125-39.424c86.699-8.917 155.136-9.685 273.621 13.141 0 0 16.384-16.597 42.112-25.685-242.304-70.869-512.299-5.547-338.859 51.968zM559.616 470.4c49.408-56.875-12.971-108.075-12.971-108.075s125.397 64.768 67.797 145.835c-53.803 75.605-95.061 113.152 128.299 242.688 0 0.043-350.549-87.509-183.125-280.448zM824.747 85.163s28.971-23.851-31.872-42.283c-115.712-35.072-481.621-45.611-583.211-1.408-36.523 15.915 32 37.973 53.504 42.581 22.485 4.864 35.328 3.968 35.328 3.968-40.661 28.629-262.656-56.192-112.768-80.512 408.747-66.261 745.045 29.867 639.019 77.653zM396.459 396.373s-186.112-44.203-65.877-60.245c50.731-6.784 151.936-5.248 246.187 2.645 77.056 6.485 154.368 20.352 154.368 20.352s-27.179-11.605-46.848-25.045c-188.971-49.707-554.069-26.581-448.939 24.235 88.832 42.923 161.109 38.059 161.109 38.059zM730.283 209.749c192.128 99.84 103.296 195.797 41.301 182.827-15.147-3.157-21.973-5.888-21.973-5.888s5.632 8.832 16.427 12.672c122.667 43.136 217.003-127.189-39.595-194.645 0 0.043 2.987 2.645 3.84 5.035zM614.443 960s106.411-106.411-100.907-270.080c-166.229-131.285-37.888-206.165-0.043-291.669-97.024 87.595-168.235 164.608-120.491 236.331 70.144 105.344 264.405 156.373 221.44 325.419zM415.317-60.757c184.405-11.819 467.584 6.528 474.283 93.781 0 0-12.885-33.067-152.405-59.349-157.355-29.611-351.531-26.155-466.645-7.168 0 0.043 23.595-19.499 144.768-27.264z" />
<glyph unicode="&#xe90e;" glyph-name="github" d="M512 947.328c-282.88 0-512-229.248-512-512 0-226.261 146.688-418.133 350.080-485.76 25.6-4.821 34.987 11.008 34.987 24.619 0 12.16-0.427 44.373-0.64 87.040-142.421-30.891-172.459 68.693-172.459 68.693-23.296 59.093-56.96 74.88-56.96 74.88-46.379 31.744 3.584 31.104 3.584 31.104 51.413-3.584 78.421-52.736 78.421-52.736 45.653-78.293 119.851-55.68 149.12-42.581 4.608 33.109 17.792 55.68 32.427 68.48-113.707 12.8-233.216 56.832-233.216 253.013 0 55.893 19.84 101.547 52.693 137.387-5.76 12.928-23.040 64.981 4.48 135.509 0 0 42.88 13.739 140.8-52.48 40.96 11.392 84.48 17.024 128 17.28 43.52-0.256 87.040-5.888 128-17.28 97.28 66.219 140.16 52.48 140.16 52.48 27.52-70.528 10.24-122.581 5.12-135.509 32.64-35.84 52.48-81.493 52.48-137.387 0-196.693-119.68-240-233.6-252.587 17.92-15.36 34.56-46.763 34.56-94.72 0-68.523-0.64-123.563-0.64-140.203 0-13.44 8.96-29.44 35.2-24.32 204.843 67.157 351.403 259.157 351.403 485.077 0 282.752-229.248 512-512 512z" />
<glyph unicode="&#xe90f;" glyph-name="jquery" d="M65.451 709.376c-90.581-130.133-79.36-299.392-10.112-437.589 1.579-3.371 3.328-6.571 5.035-9.771 0.981-2.219 2.091-4.267 3.285-6.357 0.555-1.195 1.323-2.432 2.005-3.541 1.109-2.219 2.304-4.352 3.456-6.485l6.699-11.307c1.237-2.091 2.432-4.139 3.84-6.229 2.347-4.011 5.12-7.979 7.552-11.989 1.109-1.664 2.133-3.328 3.371-4.992 4.744-7.429 9.1-13.604 13.699-19.583l-0.472 0.639c3.328-4.565 6.656-9.003 10.24-13.44 1.152-1.621 2.432-3.243 3.627-4.864l9.429-11.477c1.152-1.323 2.304-2.859 3.541-4.224 4.181-5.035 8.619-9.941 13.056-14.891 0-0.085 0.128-0.171 0.213-0.299 5.515-6.937 11.444-13.083 17.91-18.622l0.181-0.151c3.413-3.499 6.827-6.997 10.453-10.411l4.309-4.139c4.736-4.437 9.472-8.875 14.464-13.141 0.085 0 0.128-0.085 0.213-0.128l2.432-2.133c4.352-3.797 8.747-7.595 13.227-11.093l5.333-4.48c3.627-2.901 7.381-5.675 11.093-8.533l5.803-4.437c3.968-2.987 8.192-5.931 12.245-8.832 1.493-1.067 2.987-2.133 4.523-3.115l1.237-0.981 11.989-7.893 5.12-3.413c6.272-4.011 12.501-7.808 18.688-11.563 1.792-0.896 3.584-1.877 5.248-2.901 4.608-2.645 9.387-5.333 14.037-7.808 2.56-1.451 5.205-2.688 7.851-4.011 3.2-1.792 6.528-3.541 9.941-5.333 0.922-0.284 1.714-0.617 2.464-1.018l-0.074 0.036c1.408-0.64 2.731-1.323 4.096-2.005 5.12-2.56 10.453-4.992 16-7.424 1.024-0.427 2.133-0.853 3.243-1.451 6.144-2.688 12.288-5.248 18.645-7.765 1.451-0.427 2.987-1.152 4.48-1.707 5.76-2.176 11.691-4.395 17.536-6.485l2.133-0.768c6.528-2.219 12.971-4.352 19.584-6.4 1.536-0.427 3.115-0.981 4.736-1.408 6.784-2.048 13.355-4.48 20.181-5.803 437.76-79.787 564.992 263.211 564.992 263.211-106.88-139.179-296.533-175.872-476.16-135.040-6.656 1.536-13.312 3.669-20.011 5.632-12.213 3.523-20.264 6.157-28.234 8.962l4.042-1.239-2.645 1.024c-5.803 1.963-11.392 4.139-17.067 6.315-1.075 0.477-2.629 1.069-4.209 1.606l-0.485 0.143c-6.272 2.517-12.373 5.12-18.432 7.808-1.323 0.427-2.432 1.024-3.755 1.536-11.195 4.964-16.254 7.391-21.289 9.86l5.886-2.607c-1.579 0.683-2.987 1.408-4.523 2.219-4.011 1.877-8.021 4.011-11.947 6.059-3.648 1.737-6.263 3.103-8.837 4.534l0.858-0.438c-4.821 2.56-9.643 5.333-14.464 7.979-1.451 1.024-3.115 1.877-4.779 2.816-9.234 5.41-15.333 9.205-21.366 13.094l2.678-1.616c-2.051 1.276-3.692 2.387-5.294 3.55l0.259-0.179c-5.51 3.395-9.851 6.294-14.095 9.32l0.783-0.53c-1.493 0.981-2.859 2.048-4.395 3.115-5.455 3.768-9.54 6.741-13.566 9.786l1.022-0.741c-1.792 1.451-3.712 2.816-5.632 4.267-3.755 2.944-7.552 5.76-11.307 8.875l-5.035 4.011c-5.554 4.486-10.192 8.408-14.749 12.42l0.498-0.43c-0.472 0.462-0.988 0.883-1.54 1.255l-0.039 0.025-14.805 13.483-4.267 4.011c-3.499 3.541-7.083 6.955-10.667 10.453l-4.139 4.267c-4.421 4.399-8.721 8.889-12.913 13.48l-0.271 0.301-0.64 0.683c-4.523 4.949-8.917 9.984-13.355 15.104-1.152 1.323-2.219 2.731-3.413 4.139l-9.643 11.819c-3.354 4.199-8.113 10.421-12.792 16.705l-1.715 2.409c-99.627 136.021-135.68 323.755-55.936 477.739zM346.496 818.987c-65.664-94.251-61.952-220.288-10.837-319.957 9.468-18.681 19.064-34.49 29.699-49.509l-0.814 1.211c9.813-14.080 20.651-30.72 33.792-42.069 4.565-5.205 9.515-10.24 14.677-15.317l3.84-3.84c4.864-4.693 9.856-9.301 14.933-13.867l0.64-0.555c5.135-4.509 10.885-9.285 16.762-13.908l0.902-0.684c1.451-0.981 2.688-2.133 4.096-3.115 5.973-4.608 11.989-9.045 18.219-13.44l0.64-0.384c2.645-1.92 5.461-3.669 8.448-5.547 1.195-0.768 2.56-1.792 3.84-2.56 4.523-2.901 8.96-5.632 13.525-8.405 0.725-0.299 1.365-0.683 2.048-0.981 3.84-2.347 8.021-4.608 12.032-6.699 1.408-0.853 2.773-1.493 4.224-2.304 2.859-1.408 5.675-2.901 8.405-4.352l1.365-0.597c5.76-2.816 11.648-5.461 17.408-8.107 1.451-0.555 2.688-1.024 3.925-1.621 4.736-2.048 9.557-4.011 14.293-5.845 2.133-0.725 4.139-1.579 6.144-2.219 4.352-1.621 8.917-3.115 13.227-4.608l5.973-1.92c6.229-1.92 12.544-4.437 19.115-5.504 337.92-56.021 416.171 204.245 416.171 204.245-70.443-101.376-206.763-149.675-352.043-111.957-8.85 2.258-15.233 4.159-21.535 6.238l2.421-0.692c-2.048 0.555-3.84 1.195-5.803 1.792-4.437 1.536-9.003 3.029-13.312 4.651l-6.144 2.304c-4.779 1.92-9.643 3.712-14.293 5.76-1.451 0.64-2.773 1.067-3.883 1.707-5.973 2.688-11.989 5.333-17.792 8.192l-8.789 4.565-5.077 2.56c-3.925 2.048-7.552 4.181-11.307 6.4-1.052 0.503-1.919 0.986-2.754 1.515l0.108-0.064c-4.523 2.816-9.216 5.547-13.525 8.448-1.451 0.811-2.773 1.792-4.139 2.645l-8.875 5.803c-6.144 4.267-12.16 8.875-18.219 13.312-1.365 1.237-2.688 2.261-4.011 3.371-63.872 50.219-114.261 118.869-138.155 196.608-25.173 80.811-19.627 171.435 23.851 244.992zM582.827 900.949c-38.741-56.832-42.453-127.403-15.787-190.080 28.331-66.56 86.272-118.827 153.771-143.573 2.773-1.067 5.461-1.963 8.32-2.987l3.755-1.152c3.925-1.237 7.893-2.688 11.947-3.584 186.709-36.011 237.227 95.872 250.837 115.243-44.459-63.829-118.997-79.147-210.432-56.917-8.94 2.239-16.282 4.577-23.435 7.301l1.419-0.474c-10.798 3.798-19.492 7.456-27.941 11.542l1.615-0.704c-17.602 8.611-32.708 17.983-46.768 28.661l0.688-0.501c-81.92 62.037-132.651 180.48-79.232 276.949z" />
<glyph unicode="&#xe910;" glyph-name="node-dot-js" d="M487.893 953.472l-399.787-231.68c-14.933-8.661-24.064-24.661-24.021-41.941v-463.531c0-17.237 9.173-33.28 24.064-41.899l399.787-231.893c14.933-8.661 33.28-8.661 48.213 0l399.616 231.808c14.933 8.747 24.064 24.661 24.107 41.899v463.616c0 17.237-9.216 33.28-24.149 41.984l-399.531 231.68c-14.933 8.661-33.365 8.661-48.213 0z" />
<glyph unicode="&#xe911;" glyph-name="myspace" d="M844.928 436.309c89.941 0 162.901 72.661 162.901 162.304s-72.96 161.92-162.901 161.92c-89.984 0-162.901-72.96-162.901-162.56 0-89.643 72.917-162.603 162.901-162.603v0.939zM477.867 406.229c80.939 0 146.603 65.408 146.603 146.091s-65.621 146.133-146.603 146.133-146.603-65.963-146.603-146.603c0-80.683 65.493-146.517 146.603-146.517v0.896zM145.067 379.136c72.96 0 131.968 58.88 131.968 131.456 0 72.704-59.52 131.584-132.48 131.584-72.832 0-131.755-58.88-131.755-131.84 0-72.533 59.179-131.328 132.053-131.328l0.213 0.128zM145.067 349.056c-83.627 0-145.067-73.259-145.067-149.12v-51.029c0-7.253 5.888-13.227 13.227-13.227h263.68c7.296 0 13.184 5.973 13.184 13.227v51.029c0 75.904-61.312 149.333-144.981 149.333l-0.043-0.213zM477.867 372.949c-92.971 0-161.28-81.707-161.28-166.016v-56.789c0-8.021 6.656-14.677 14.72-14.677h293.163c8.021 0 14.592 6.613 14.592 14.677v56.789c0 84.309-68.181 166.016-161.195 166.016zM844.928 399.275c-103.339 0-179.072-90.709-179.072-184.448v-63.019c0-8.96 7.339-16.256 16.299-16.256h325.547c8.96 0 16.341 7.296 16.341 16.256v63.019c-0.043 93.739-75.776 184.448-179.115 184.448z" />
<glyph unicode="&#xe912;" glyph-name="sparkpost" d="M691.2 576c-57.643-38.4-76.8-115.2-70.4-166.4-96 96 147.2 364.8-128 550.4 153.6-230.4-236.8-416-236.8-742.4 0-128 83.2-243.243 256-281.6 172.8 38.315 256 153.6 256 281.6 0 192-115.2 256-76.8 358.4zM512 70.315c-76.8 0-147.2 64-147.2 147.243 0 76.843 64 147.2 147.2 147.2 76.8 0 147.2-64 147.2-147.2-6.4-83.243-70.4-147.243-147.2-147.243z" />
<glyph unicode="&#xe913;" glyph-name="microsoftpowerpoint" d="M1001.984 789.333h-364.459v-135.936c21.973 16.64 48.299 25.088 79.147 25.088v-132.181h131.157c-0.64-37.077-13.44-68.352-38.443-93.568-24.917-25.259-56.235-38.229-93.355-39.083-28.8 0.853-55.040 9.515-78.037 26.24v-90.837h286.677v-44.587h-286.763v-55.168h286.507v-44.032h-286.677v-99.84h364.501c14.763 0 21.76 7.765 21.76 22.912v639.232c0 14.592-6.997 21.76-21.76 21.76h-0.256zM737.28 568.064v133.291c37.12-0.853 68.267-13.739 93.355-38.827 25.003-25.088 38.016-56.576 38.656-94.464h-132.011zM352.256 565.845c-2.261 8.576-5.973 15.232-11.221 20.139-5.12 4.779-12.032 8.277-20.608 10.496-9.6 2.603-19.499 3.84-29.44 3.84l-30.72-0.597v-127.957h1.109c11.136-0.683 22.827-0.683 35.2 0 12.16 0.64 23.68 3.84 34.517 9.6 13.355 9.6 21.333 22.4 23.936 38.997 2.56 16.683 1.664 32.683-2.731 47.403v-1.92zM0 829.483v-765.696l584.021-100.907v970.24l-584.021-103.637zM435.755 484.437c-16-37.077-39.893-60.8-71.851-71.040-31.957-10.197-66.475-14.165-103.637-11.904v-146.005l-76.843 8.917v401.152l121.984 6.357c22.613 1.408 44.971-1.067 66.816-7.68 21.973-6.485 39.339-19.584 52.181-39.339 12.8-19.669 20.011-42.496 21.76-68.48 1.579-25.984-1.835-50.005-10.411-71.979z" />
<glyph unicode="&#xe914;" glyph-name="wikipedia" d="M515.84 400.256c-39.936-82.432-94.592-194.048-121.728-244.395-26.283-45.824-48.085-39.723-65.365-1.237-59.989 141.696-183.168 390.144-241.109 529.451-10.709 25.643-18.816 42.112-26.411 48.597-7.723 6.4-23.637 10.24-47.872 11.563-8.96 1.024-13.355 3.2-13.355 6.784v19.413l2.219 1.92c39.424 0.213 230.443 0 230.443 0l2.176-1.92v-18.517c0-5.077-3.2-7.509-9.6-7.509l-24.064-1.323c-20.693-1.237-31.019-6.997-31.019-18.603 0-5.76 2.261-14.080 7.083-25.643 46.165-112.896 205.568-448.896 205.568-448.896l5.803-1.963 102.869 205.227-20.565 45.525-70.741 139.264s-13.568 27.904-18.261 37.205c-31.061 61.568-30.379 64.768-61.739 68.992-8.832 0.981-13.355 2.133-13.355 6.357v19.968l2.56 1.92h183.125l4.821-1.579v-19.243c0-4.48-3.243-6.4-9.685-6.4l-13.141-2.005c-33.792-2.603-28.203-16.256-5.803-60.672l67.499-138.752 75.008 149.504c12.501 27.307 9.941 34.176 4.736 40.405-2.987 3.584-13.013 9.387-34.645 10.24l-8.576 0.896c-2.219 0-4.181 0.64-6.187 2.176-1.92 1.323-2.859 3.243-2.859 5.504v18.219l2.603 1.92c53.205 0.341 172.501 0 172.501 0l2.517-1.92v-18.603c0-5.163-2.517-7.595-8.235-7.595-27.563-1.28-33.365-4.053-43.648-18.731-5.12-7.936-16-25.131-27.563-44.331l-98.176-182.315-2.773-5.76 119.125-243.712 7.253-2.048 187.563 445.355c6.571 18.005 5.504 30.805-2.731 38.187-8.405 7.339-14.763 11.648-36.565 12.587l-17.92 0.683c-2.603 0-4.48 0.597-6.485 1.92-1.835 1.237-3.072 3.2-3.072 5.077v18.603l2.517 1.92h211.669l1.749-1.92v-18.645c0-5.077-3.157-7.68-8.917-7.68-27.648-1.28-48.085-7.68-61.568-17.963-13.397-10.88-23.765-26.283-31.403-45.525 0 0-172.501-395.008-231.509-526.464-22.4-42.965-44.928-39.125-64.128 1.323-24.363 49.963-75.648 161.536-112.896 243.627l2.261 1.536z" />
<glyph unicode="&#xe915;" glyph-name="gnu" d="M216.405 365.568c-9.429-0.512-17.877-6.016-22.144-14.421-4.907-9.003-16.597-10.325-22.059-8.576-8.96 2.987-20.523 5.077-31.744-2.901s-23.296-1.92-21.12 12.672c2.091 14.507 7.339 27.52 21.291 35.413 30.464 17.493 9.259 29.653 25.941 47.317 16.811 17.579 13.099 22.912 12.501 46.891-56.576 8.533-88.661 24.832-124.416 69.589-35.797 44.672-49.707 81.493-53.376 137.557-3.755 56.192-0.469 92.544 23.765 139.136 24.235 46.421 49.835 68.821 93.952 92.075 44.16 23.381 87.509 28.885 127.531 28.203 40.064-0.64 66.731-3.541 89.344-16.512 22.656-12.928 43.349-29.184 56.491-29.227 10.24-0.64 20.352 2.261 28.715 8.192 1.707-43.52-37.461-47.275-72.448-48.213-34.987-0.896-56.491 13.525-88.747 8.192-32.171-5.461-84.992-20.096-110.72-64.853-25.728-44.8-26.624-60.587-24.448-98.176 2.091-37.461 34.389-65.451 52.651-65.792 18.261-0.299 22.315 4.992 38.315 15.36 15.957 10.496 97.451 111.36 125.184 133.973 27.861 22.656 55.296 29.696 84.907 30.080 29.653 0.341 37.163-0.64 61.141-10.496 23.893-9.771 38.571-27.819 57.856-38.827 9.813 5.76 16 14.464 24.917 21.12 32.427 23.552 49.152 29.952 87.595 26.24 22.101-2.219 49.877-14.805 66.56-29.269 29.568-25.771 54.016-61.483 73.728-88.704 15.36-21.205 33.493-46.549 59.392-54.485 28.117-8.576 49.365 27.819 52.48 48.171 1.835 11.52 4.139 21.589 4.139 34.176 0 12.672-1.28 27.947-4.907 41.173-3.84 13.099-9.472 25.557-16.725 37.077-11.008 17.749-29.013 36.267-47.616 45.739-10.496 5.333-35.243 15.061-50.816 15.403-19.115 0.427-33.664-6.016-51.285-7.211-21.333-1.451-59.563-6.229-76.203 10.24-10.709 10.496-12.075 17.536-13.824 31.189 4.651-3.925 11.264-6.4 17.109-6.955 13.355-1.109 25.813 9.771 36.651 16.128 8.96 5.248 21.504 14.507 33.195 19.2 30.037 12.16 66.901 11.861 98.56 8.533 25.387-2.56 58.368-13.824 80.64-26.496 22.443-12.629 43.989-34.005 59.733-54.101 19.883-25.344 30.763-47.104 37.931-78.677 9.216-40.32 11.819-100.907 0.64-140.757-8.747-31.317-37.845-79.403-62.592-102.997-24.448-23.339-52.693-34.603-84.736-40.747 1.28-6.357 1.408-12.416 3.029-17.749 2.389-7.595 6.955-16 16.213-13.355 3.669 1.067 5.675 2.005 10.496-2.261 4.907-4.267 2.389-20.693-11.349-28.16-6.997-3.669-14.251-4.48-25.387-4.779-13.611-0.512-27.264 0.171-40.661 1.963-12.075 2.005-19.243 11.648-32.64 13.184-20.693 2.347-36.48 17.28-53.12 27.904-6.912 4.437-9.301 4.437-13.269 6.741 2.176-6.571 5.035-13.397 6.443-19.84 1.451-6.229 0.853-12.16 1.579-17.237 0.811-5.077 2.219-9.003 2.987-13.184 3.285-2.901 4.395-7.381 9.941-8.832 5.547-1.493 14.251 0.768 19.968 1.579 5.76 0.768 9.557 3.84 13.995 2.987 4.48-0.853 8.704-4.096 12.459-7.083s6.997-3.413 9.984-10.837c2.987-7.595 5.76-22.912 6.229-33.152 0.384-10.24-0.768-19.413-3.797-27.648-2.987-8.064-5.76-11.648-13.952-19.755s-21.589-19.84-34.944-28.16c2.475-3.584 3.541-6.912 7.381-10.837 3.84-4.011 11.819-8.405 15.317-12.587 3.627-4.181 5.461-7.168 5.461-11.819 0.512-5.589-0.896-11.179-3.968-15.915-9.515-12.757-20.608-15.019-34.261-20.992 2.304-14.251 4.181-24.405 0.853-38.656-1.28-5.845-4.352-18.987-11.52-22.4-7.211-3.413-20.992-1.749-29.781-3.157-8.747-1.323-13.611-2.688-20.437-4.011-4.181-6.016-10.325-12.672-12.416-18.005-2.091-5.419-1.451-7.339 0.256-12.757 1.792-5.504 7.893-13.483 9.6-20.011 1.664-6.4 2.091-13.269 0.469-19.755-1.621-6.4-4.992-12.245-9.813-16.896-5.504-5.76-16.299-10.24-21.717-14.763-5.333-4.736-10.752-5.248-9.259-12.928 2.005-10.581 17.451-27.563 28.587-31.744 7.893-2.347 16.299-1.664 23.765 1.749-0.597-8.917-8.32-15.104-13.44-21.077 13.739 4.011 27.136 11.52 36.437 21.504-2.859-8.661-12.8-22.571-27.52-34.816s-14.635-9.771-22.059-14.677c13.397-2.603 25.856-1.92 36.267-0.085-8.405-4.736-17.749-7.765-27.349-8.832-12.331-1.323-19.968-0.341-31.104 2.347s-21.291 12.843-34.731 19.84c1.28-5.077 2.261-11.093 7.893-16.256 5.803-5.077 14.293-7.765 23.424-12.075-11.605 1.237-23.808 1.579-35.157 4.096-8.491 2.005-14.165 3.925-20.395 6.997-6.144 2.987-10.88 7.509-16.384 11.264 2.603-4.992 3.371-10.923 7.851-15.019 4.437-4.181 11.733-5.76 17.579-8.491-6.101 0.171-11.989-1.237-18.347 0.427-6.827 1.579-13.312 4.651-18.901 8.917-6.827 5.077-13.269 10.667-18.987 16.896-5.632 6.187-12.629 14.165-14.72 19.755-2.048 5.675 1.28 9.6 1.877 14.421-3.84-2.603-8.576-4.011-11.605-7.68-2.987-3.755-5.632-7.083-4.309-13.568 1.28-6.4 7.339-14.421 11.563-21.589-12.629 10.325-19.669 14.336-22.656 26.667-2.731 11.648 4.437 22.187 9.941 30.933 2.731 4.437 6.912 8.491 9.429 12.757-5.76 5.504-12.16 10.24-17.067 16.597-4.821 6.4-6.912 15.019-11.819 20.992-4.992 6.101-11.691 9.899-17.493 14.848 5.077-10.923 13.525-24.405 15.317-32.896 1.877-8.491-2.048-13.739-5.077-18.347-2.987-4.565-7.851-5.675-12.459-8.405-4.693-2.901-11.819-0.683-14.592-4.821s-3.541-10.496-0.896-14.677l10.923-16.981c-5.376 3.072-10.027 7.168-13.952 11.989-3.157 4.096-7.936 8.021-8.491 13.483-0.683 5.589-0.981 10.496 2.688 15.488 3.584 4.992 13.568 6.656 18.005 10.496 4.48 3.84 6.912 6.315 6.656 11.264-0.256 4.992-5.077 8.491-9.259 11.648-12.757 9.6-29.013 18.347-39.851 29.824-4.651 4.48-8.149 9.984-10.197 16.171-1.28 4.48 0.043 8.021 3.029 13.397 3.072 5.589 13.44 13.013 14.763 18.901 1.237 6.016-4.053 7.339-8.747 9.429-4.736 2.091-13.739-1.067-18.133 2.603s1.28 11.349-3.669 15.573-16.256 1.92-22.144 6.4c-5.163 4.352-8.747 10.24-10.24 16.853-1.963 6.016-2.261 12.416-0.896 18.603 1.365 4.821 5.461 5.675 7.979 8.149 2.517 2.432 4.608 4.437 1.28 8.149-3.157 3.755-14.080-0.171-20.309 4.48-6.357 4.821-2.56 16.256-6.955 21.077-4.437 4.651-12.245 2.816-16.469 4.437-4.139 1.493-5.76-3.84-8.277 4.651-2.603 8.491-2.688 34.005-6.101 43.52s-10.155 0.683-13.269 10.069c-3.2 9.429-0.171 24.491-1.579 38.741l-6.4 38.827c-22.229-15.019-36.992-19.755-60.928-23.936-2.005-58.581-7.509-93.099 12.416-158.080 19.84-64.896 60.075-103.253 114.347-158.165-71.68 53.589-105.771 97.237-127.189 153.088-21.376 55.936-17.323 102.699-15.189 156.416zM596.949 389.163c5.504-0.256 12.16-1.664 16.043-4.181 3.883-2.603 8.021-4.565 11.52-8.064 8.789-9.003 15.36-19.755 18.261-32.085 1.877-7.936 2.133-18.005 2.731-27.264-2.645 8.491-4.395 17.408-8.192 25.088-5.931 12.16-16.043 23.936-28.672 29.355-2.816 1.323-6.016 1.749-9.131 1.152 0.981-1.749 2.688-3.243 2.773-5.675 0-2.517-0.512-7.424-4.779-9.515-6.827-3.328-14.464-0.896-19.797 3.669-5.419 4.992-7.083 12.843-4.352 19.584 3.371 8.277 16 8.277 23.595 7.936zM527.787 400.768c0.725 14.165 5.76 25.984 18.475 32.896 7.979 4.565 16.725 7.68 25.771 9.173 8.832 1.109 30.421 0.341 43.435-5.589 9.899-4.48 16.683-11.563 25.472-16.811 8.747-5.163 14.976-8.576 23.296-14.421 12.8-9.003 20.267-18.731 29.099-24.576 4.309-2.816 10.24-2.432 15.957-4.181-4.437-1.237-10.197-2.731-14.933-1.237-6.784 2.731-13.141 6.485-18.688 11.264-6.571 5.845-13.653 11.008-21.205 15.317-5.291 3.072-14.037 6.741-19.883 10.496-5.76 3.84-15.829 12.075-21.419 14.891-8.832 3.669-18.261 5.504-27.733 5.333-10.923-0.341-26.709-2.133-35.072-9.728-8.405-7.68-11.563-14.336-9.685-24.149 3.115 3.584 5.248 8.149 8.32 10.837 6.571 5.675 14.037 5.931 22.229 4.821 9.173-1.152 13.739-6.4 16.768-15.104-2.005 1.408-5.76 4.651-8.704 5.76-6.144 2.347-13.056 1.664-18.688-1.835-7.637-4.181-5.547-10.24-6.571-16.896-0.555-3.243-1.749-5.675-2.603-8.491-2.859 0.683-5.504 2.091-7.68 4.181 0.043-3.243-0.427-6.016 0.256-9.515 0.597-3.584 2.347-7.851 3.584-11.648-5.376 5.333-10.923 10.24-14.293 17.152-3.669 6.699-5.589 14.379-5.504 22.059zM537.131 503.168c3.883 5.803 5.077 14.72 7.424 22.059-0.896-9.259 0.896-19.328-3.541-25.984-4.48-6.741-12.459-5.504-18.901-7.509 5.035 3.84 11.008 5.589 15.019 11.435zM442.965 366.507c5.077 4.096 18.688 0.853 28.843 0.085l-21.931-5.675c-0.725-2.517-0.427-5.248-2.048-7.424-1.707-2.176-4.864-2.901-7.296-4.437 0.256 6.613-2.645 13.355 2.432 17.451zM514.773 650.325c6.101-3.2 13.696-7.595 19.157-7.68 5.291-0.171 6.741 3.413 9.899 5.589 4.907-16.213 10.667-34.005 19.115-48.725 3.541-6.229 5.803-3.371 8.533-9.557 2.688-6.187 3.84-18.731 6.4-26.709 2.517-7.979 5.845-13.696 8.832-20.608-7.424 10.667-17.109 24.149-21.333 32.981-4.181 8.832-1.493 9.6-4.907 17.963-3.328 8.448-10.155 21.504-15.232 32.256-3.669-0.469-8.107-1.109-10.88-0.256-2.773 0.896-2.304 3.883-4.779 5.717-2.517 1.92-6.741 1.152-10.24 4.267-3.456 2.987-4.267 9.259-4.565 14.763zM482.048 570.325c5.76 0.512 12.757-0.981 18.133-0.725s9.216 1.664 13.867 2.56c-0.896 8.064-0.085 22.912-7.509 28.331-4.907 3.413-24.661 0.853-29.909-0.256-11.904-2.603-25.771-9.685-37.248-14.080 11.008 7.68 20.523 14.763 33.749 18.731 8.021 2.347 26.496 5.504 34.688 3.243 3.797-0.981 4.48-2.603 6.784-5.76 7.808-10.88 7.808-20.267 9.771-32.981 2.005-3.029 4.096-5.077 5.76-8.277 1.621-3.968 2.645-8.107 2.901-12.331-2.048 2.944-0.768 6.613-6.357 8.789-5.76 2.261-14.379 0.213-22.059-0.597 5.589-4.096 8.32-7.936 8.576-16.384 0.256-9.941-8.149-17.109-16.981-17.792-12.16-0.939-18.517 1.749-23.424 12.16-2.176 4.565-0.683 10.069-0.768 14.549-14.763-1.024-14.507-0.555-25.259-9.472 5.931-8.576 9.557-13.44 19.243-18.603 5.333-2.816 11.52-5.675 18.133-6.827 6.699-1.152 17.707-2.261 24.789-1.152 6.187 0.768 11.861 3.499 16.171 7.979 5.248 4.779 5.76 11.691 7.765 17.195-0.171-5.419-1.152-10.752-2.987-15.829-5.973-11.52-16.213-15.019-28.501-15.019-11.733 0-26.283 2.688-37.248 7.211-8.747 3.627-23.253 13.867-26.667 22.784-2.389 6.101-0.512 13.568-0.768 20.352 12.16 8.064 15.104 6.101 29.397 8.448 6.016 1.067 10.197 3.243 15.957 3.755zM411.435 624.896c0.299 4.864 0.896 4.736 1.28 7.125-11.051 2.944-15.403-4.224-21.931-17.536-2.432-4.907 0-7.936-2.645-11.221-2.517-3.243-6.784-2.773-10.965-5.931s-8.363-9.173-12.331-12.459c-8.064-6.656-19.072-10.709-28.459-15.275 6.4 4.736 18.901 11.904 22.955 18.731 2.133 3.669 1.792 10.539 5.12 13.867 3.328 3.2 4.48 5.547 8.747 6.357s2.603 5.803 3.968 9.771c1.365 3.883 4.139 6.741 7.040 10.709s6.656 9.813 12.416 12.032c5.76 2.091 14.805-0.213 19.2 0.981 4.352 1.237 1.835 4.48 5.035 6.4s9.344 0.981 13.653 3.072c7.509 3.584 11.093 9.685 15.659 16.085 0.64-13.909 0.427-23.936-4.565-37.077-5.589-14.763-11.349-23.467-27.349-32.555-5.461-3.072-10.965-4.181-15.573-5.845 2.645 3.669 6.485 5.248 8.021 10.923 1.451 5.803 0.384 17.067 0.725 21.845zM669.952 556.971c-7.552-0.597-9.344 0.512-15.488-3.883l9.899-15.36c-0.256 10.112 0.768 12.16 5.675 19.243h-0.085zM650.112 564.309c10.496 4.437 19.669 8.064 31.147 8.832 4.565 0.341 11.691-0.384 16.341-0.683 4.011 5.845 9.003 10.411 10.923 17.067 1.195 4.437 0.64 24.917-1.621 30.251-6.229 15.403-12.373 16.085-21.12 24.96-6.229 6.357-6.485 16.213-8.405 27.221-0.64 4.011-2.645 9.088-3.584 13.227-12.075 1.963-24.32 2.645-36.565 1.92 6.315 6.101 12.416 11.563 14.251 20.736 1.92 9.771 0.171 19.883-4.821 28.459-5.163 8.149-13.44 15.36-21.077 22.059-7.595 6.613-18.603 12.117-25.771 17.579 9.429 3.285 18.944 8.277 28.16 10.027 23.936 4.608 44.501-2.432 67.584-16.384 13.44-8.107 24.448-15.787 38.485-30.549 14.037-14.677 31.36-41.6 44.971-57.515 13.525-16 24.533-28.587 36.395-38.101 11.776-9.643 22.528-12.331 33.792-18.389l17.579-18.688 14.293 17.621 22.827-2.56 4.736 25.643 20.907 5.803-3.371 34.603 15.104 10.752-11.392 21.504 11.52 23.595-15.019 26.88 5.76 25.899-17.365 14.848-2.261 27.563-24.277 9.259-9.685 23.936-27.307 0.299-13.44 17.792-18.389-1.28-20.437 2.261-11.52 8.491-16.896-11.093-20.352 10.581-40.405-15.317 26.368 22.912 27.307 4.352 20.907 5.376 28.288-9.301 24.832 6.272 24.021-14.123 25.429 1.323 12.501-22.4 25.216-2.859 13.653-24.789 15.872-8.747 4.267-31.829 14.208-13.44-6.315-27.861 16.64-21.077-15.488-22.571 16.64-14.165-21.291-18.901 21.589-22.571-26.155-8.533 16.981-24.149-21.376-3.755 13.995-26.539-24.021 0.341 12.16-19.883-26.496 3.157 6.315-28.672-19.968 17.536-6.784-34.731-13.739 24.96-7.467-31.147-16.939 22.912 0.469-32.64-18.731 29.355c3.883-16.683 3.115-34.859 14.037-50.56 33.877 4.565 55.979 13.099 81.963 38.059 23.552 22.741 51.797 70.144 59.477 100.267 8.704 34.219 8.96 97.323 0.384 132.309-8.277 33.579-19.029 49.621-38.229 77.099-18.347 19.413-36.395 40.064-59.691 53.931-34.261 20.48-78.037 25.941-116.992 25.429-16.768-0.043-33.323-3.157-48.981-9.173-22.485-8.149-40.533-26.069-63.445-34.901-7.467-2.859-13.44-2.901-19.371 0.171 5.76-11.52 11.989-16.683 26.411-20.864 10.411-3.029 35.2-1.109 52.352 0.469 18.347 1.664 27.904 7.125 52.864 6.827 24.32-0.427 43.691-9.6 54.272-15.701 21.803-12.459 37.419-26.197 51.029-48.171 7.467-12.032 12.715-25.643 16.341-39.467 3.669-13.824 5.291-29.355 5.547-42.923s-0.811-25.685-4.139-37.888c-7.765-28.544-24.875-57.6-60.032-53.12-21.504 2.688-53.888 43.093-64.768 57.899-21.973 29.909-44.501 63.019-72.021 87.851-17.365 15.616-39.253 25.344-62.421 27.733-42.325 3.84-54.912-4.181-86.741-30.507 6.443-2.005 12.757-3.157 19.413-6.187 14.763-6.656 28.245-15.232 40.021-26.24 12.373-11.52 17.92-18.859 18.347-35.371 0.299-11.051-8.704-19.84-17.024-27.691-5.035-4.864-11.733-9.301-15.872-13.099-5.419-4.992-12.16-10.496-5.291-18.432 2.56-2.987 7.040-5.248 10.752-8.064 6.016-4.395 3.2-20.821-4.608-25.259-9.643-5.803-21.888-4.736-30.421 2.603 10.496 1.493 17.152 2.901 16.853 11.52-0.085 4.907-6.357 9.088-12.672 11.904-14.933 6.827-26.197 5.76-41.088 16.512-15.061 10.837-15.317 16.768-19.413 33.707-7.253-0.725-13.952-0.896-23.68-4.139-9.643-3.157-20.395-10.837-29.184-12.757-22.187-4.736-26.581-3.328-38.699-0.256-21.376 5.632-49.109-3.84-76.8-12.757-4.565-1.408-23.168 0-35.669-4.352-22.528-8.917-43.477-21.163-62.165-36.395-23.723-20.011-54.869-79.744-72.448-148.352-1.92-20.907 4.053-34.901-9.088-45.099-13.141-10.24-12.8-36.309-17.28-43.648-4.395-7.253-9.6-4.011-19.2-14.336-9.515-10.24-14.379-8.576-14.165-27.904 8.32 5.333 20.352 11.648 30.933 12.16 9.429 0.256 9.472-12.075 33.493 11.648 12.843 12.757 37.589 13.184 54.741 18.731s48 17.152 78.976 51.712c30.891 34.56 45.696 70.997 51.712 123.563 0.853-9.173 2.56-19.755-1.408-45.44-4.053-25.771-12.629-54.613 5.504-89.344l11.307-21.504c-6.699 9.173-19.84 24.149-23.893 34.816l-9.003 24.661c-20.48-32.128-25.173-37.845-53.547-60.8-1.109-14.251-1.408-29.099 3.243-42.752 4.608-13.653-2.731-29.355 0.853-38.4 3.499-8.917 11.648-3.84 14.336-12.928s-1.365-27.093 2.731-35.925c4.224-8.832 14.379-3.499 19.328-6.4 4.907-2.816 6.571-6.741 9.173-10.496 2.688-3.755-0.981-12.672 4.395-15.573 5.376-2.816 13.653-0.427 19.328-3.157 5.547-2.816 6.357-9.515 5.077-15.403-1.365-6.016-7.339-8.747-9.941-14.848-2.645-5.077-2.347-11.179 0.853-15.915 3.157-5.589 10.069-8.576 17.067-11.52 6.912-2.731 16.683-1.152 23.851-5.077 7.211-3.84 13.653-11.648 17.408-17.323 3.797-5.589 4.821-9.6 4.651-15.488-0.597-6.571-2.517-12.843-5.845-18.517-3.157-5.76-10.069-12.757 0.853-23.68 10.837-10.837 10.496-6.187 16.768-13.355-0.725 12.331-5.76 22.229-2.091 31.488 3.755 9.259 14.891 10.923 20.651 15.019 5.931 4.267 9.344 9.899 13.909 14.848 0-6.315 0.64-13.184-0.085-17.92-1.408-9.685-4.352-18.432 10.112-19.925 6.528-0.683 12.757 3.499 19.584 6.016-3.584-6.315-9.813-11.52-10.795-19.243-1.195-8.32 0.768-16.853 5.547-23.851 5.291-7.68 14.549-13.355 21.291-17.749 6.741-4.48 10.411-4.907 15.573-7.424 0.256-7.509-1.28-15.488-0.384-22.656 0.811-7.168 3.115-13.397 7.211-19.328 4.181-6.016 10.752-9.344 16.981-13.653-3.413 8.021-10.325 15.573-10.24 23.936s2.56 14.251 10.752 21.76c8.149 7.424 27.264 13.824 36.267 21.077 6.656 4.651 11.904 11.093 15.147 18.603 3.2 6.997 2.347 18.347 2.944 24.576 2.944-8.747 3.371-11.52 4.395-20.736 0.896-9.259-5.419-22.229-8.064-29.013 9.728 4.48 17.451 12.501 21.76 22.4 2.432-1.493 1.195-5.333 2.091-12.843 4.011 3.925 8.491 6.912 12.501 10.667s8.32 6.997 10.368 12.245c1.963 5.163 1.152 10.752-0.299 16.768-1.493 6.101-8.235 13.099-11.904 19.755-3.584 6.485 0.683 13.013 0.427 20.992-7.253 1.237-13.397 4.992-21.845 3.755-8.32-1.237-17.92-10.581-26.496-10.752-8.491 0-13.397 8.021-20.395 10.155-7.040 2.261-14.080 1.92-21.12 2.987 8.917 8.491 43.563 12.587 67.243 16.427 20.736 3.499 41.728 5.333 62.72 5.675 9.429 0.256 21.589-2.901 28.203-1.067 6.485 1.92 5.077 6.4 6.997 11.264 5.504 13.568 2.816 25.771-0.171 39.424-18.944 2.261-38.741 4.907-57.856 3.499-18.688-1.408-40.789-10.325-60.117-10.923-16.725-0.597-41.643 3.157-55.979 11.989-17.621 10.667-31.189 33.664-36.053 41.173-7.851 11.989-17.749 35.669-23.851 46.421-6.016 10.837-7.381 13.824-12.373 18.347-5.035 4.48-11.861 4.821-17.877 7.253 6.869-0.597 14.336 1.493 20.565-2.005 9.429-5.419 19.84-27.648 25.685-37.419 6.187 20.736 4.736 28.843 22.571 40.576-14.336-16.171-14.763-28.416-18.261-47.403 11.989-19.584 28.587-50.901 50.347-59.563 7.936-3.157 21.419-5.077 29.909-6.187 26.496-3.243 52.053 5.077 77.995 11.52 18.987 4.736 38.272 2.816 61.355 1.493 7.808-0.512 26.283 4.267 30.165 12.075 2.219 4.565 1.792 9.899-1.024 14.080-2.987 4.48-10.88 6.741-15.147 10.837-4.224 4.181-6.656 9.003-10.027 13.397-14.933-2.901-30.037-4.48-45.312-4.907 9.429 3.84 18.475 6.016 28.16 9.813 10.112 4.181 19.755 9.344 28.843 15.317 7.936 5.248 12.928 8.235 18.688 14.251 5.717 6.101 13.013 12.331 17.237 19.755s4.864 15.744 5.12 24.917c0.171 9.173-0.213 22.016-3.755 29.483-3.584 7.339-10.368 9.6-15.872 11.264-5.419 1.749-9.216-2.688-14.891-3.243-5.717-0.597-11.008-4.096-19.285-0.256-10.581 5.504-19.669 13.568-26.325 23.424-8.363 11.691-14.293 30.848-22.784 45.568-14.635 25.429-32.896 49.024-50.304 72.619-1.493 5.76-3.584 13.824-4.352 21.675-1.323 13.739-1.493 27.989 2.773 41.344 3.2 10.24 8.021 21.077 18.688 25.259 4.267 1.835 9.045 2.176 13.525 0.939 3.84-1.365 7.637-5.76 6.059-10.752-1.664-5.504-5.419-5.717-8.021-8.448-3.883-3.883-6.528-8.747-7.808-14.080 4.736 0.171 11.179 0.469 15.104-0.555 5.12-1.28 9.771-4.693 12.416-11.904-6.101 5.376-9.088 7.893-16.64 8.021-3.541 0.085-7.765-1.109-11.563-1.749-1.451-4.608-2.304-10.368-4.309-14.037-2.091-3.584-6.016-2.688-7.509-6.869-1.408-5.461-1.664-11.136-0.853-16.683h0.171zM703.104 570.667c2.389-0.896 3.2-1.152 6.229-3.413 2.944-2.219 7.040-4.437 9.387-9.771 1.877-5.504 2.475-11.349 1.707-17.067-2.048 0.64-4.821 0.213-6.955 2.005-2.133 1.835-3.371 5.973-6.101 7.68-2.773 1.835-4.992 1.451-8.021 1.835 1.621-4.096 2.133-8.491 1.536-12.843-1.536-8.661-6.656-13.099-15.019-14.080-3.584-0.512-9.344 0.683-12.459 1.237 1.451-3.2 3.883-6.101 5.376-9.344 6.997 0.981 12.16 0.853 16 2.603 3.755 1.749 7.808 5.76 12.629 7.381 4.821 1.664 9.131 1.664 14.421 2.517-4.181-3.584-6.912-7.125-11.051-10.795l9.131-26.581c6.485-4.096 12.544-6.229 20.693-11.221 8.149-4.949 17.92-13.952 28.587-18.773 10.624-4.821 16.896-7.552 28.032-9.6 11.051-2.133 19.925-11.179 30.805-12.629 10.88-1.365 31.36-1.749 39.765-0.896 9.6 0.896 22.016 5.803 23.125 16.299-8.021-1.92-20.267-0.213-26.411 14.891-2.731 6.699-1.451 19.072-5.632 26.923-4.224 7.979-10.069 10.496-17.067 20.267s-18.389 25.131-24.747 38.187c-6.4 13.141-8.021 27.904-13.355 39.637-5.461 11.691-13.611 21.12-20.011 30.208-13.824 19.755-24.96 33.152-47.787 43.136-11.008 4.779-23.509 6.101-35.157 9.088-4.821-2.133-11.435-4.437-12.587-10.112-0.896-6.4 0.896-13.013 5.12-17.963 6.784-7.040 16.853-14.592 20.779-25.728 2.603-7.168 3.243-31.147 1.067-37.675-2.304-6.827-7.595-10.965-12.032-15.403zM705.323 513.877c-2.091-1.835-3.712-3.712-7.125-5.205-3.413-1.536-8.064-1.92-12.587-3.029 6.315-9.856 13.013-19.883 19.072-30.251 6.101-10.325 11.349-21.76 17.109-32.64-0.299 6.272 0.085 12.885-0.811 18.688s-3.541 10.837-6.187 19.669c-2.56 8.789-5.76 20.651-9.472 32.768zM534.699 730.923c-0.896-9.643 0.811-24.789 2.731-34.389 2.475-11.392 4.736-17.237 13.995-24.064 16.896-12.587 27.648-10.453 40.747-17.749 6.187-3.456 13.995-9.259 16.299-15.317 2.261-6.229-1.536-12.843-6.229-15.488 8.192-1.237 17.408 8.064 13.568 17.493-1.92 4.651-10.88 6.827-13.653 11.563-2.517 4.352-2.987 9.557-1.408 14.293 2.261 8.619 19.371 16.555 25.472 23.296 9.301 10.581 12.8 19.328 7.552 32.853-7.339 18.987-35.925 34.304-52.992 41.771-7.808 3.413-12.245 3.584-18.304 5.504 12.459-7.424 25.643-13.227 32-29.483 5.248-13.696 0.64-18.901 0.896-30.763 0.085-5.547 7.339-8.32 10.581-11.733 2.731-3.072 2.56-5.333 0.341-9.515-0.171 3.413-1.92 6.571-4.736 8.491-4.779 3.413-9.984 2.688-12.544 9.6-3.84 10.581 3.883 20.651-4.779 32.512-6.4 8.875-15.061 18.816-26.667 19.072-5.248 0.043-10.411-0.768-15.36-2.475l-7.808 9.387-0.213 0.128c-15.872 14.464-26.752 26.411-48.939 36.352-22.272 9.984-33.28 11.52-58.837 10.923-25.472-0.555-50.773-2.688-80.341-28.16-29.611-25.6-105.856-123.221-124.373-135.552-18.389-12.331-22.485-16.597-45.568-16.597s-59.179 32.683-60.587 73.515c-1.365 40.789-1.92 55.339 26.411 104.491 28.416 49.152 79.744 64.256 117.931 69.333 38.187 5.163 61.099-8.277 89.259-8.32 28.16-0.085 56.064 4.736 64.341 27.179-4.053-2.389-9.429-5.12-24.619-4.309-15.147 0.811-36.224 18.389-59.819 30.123-23.68 11.776-49.92 13.184-83.712 13.781-33.707 0.64-75.819-1.92-117.547-24.491-41.728-22.4-70.187-46.293-94.421-90.453-24.235-44.075-27.819-80-23.893-133.419 3.84-53.333 20.352-93.056 52.011-132.181 31.744-38.997 63.403-58.155 120.491-65.237l12.075 52.992-21.504-30.763 0.597 34.261-19.413-24.107-8.619 32.725-15.659-26.24-7.808 36.48-22.869-18.432 7.253 30.080-30.165-3.328 13.824 20.949-27.477-0.256 16 27.861-24.32 3.883 19.371 25.429-29.781 8.789 24.661 23.68-24.448 19.925 19.115 14.848-17.92 23.851 19.115 22.187-7.125 29.227 16.171 14.037 4.821 33.536 18.176 9.131 15.616 26.069 28.885 3.072 14.251 23.595 29.013-1.493 27.392 14.848 28.416-6.571 32.256 9.728 23.979-5.547 31.189-4.608 30.080-24.064-46.123 16.085-23.211-11.093-19.243 11.648-13.227-8.917-23.467-2.432-20.949 1.28-15.275-18.603-31.232-0.299-11.093-25.131-27.733-9.728-2.603-28.928-19.925-15.616 6.613-27.179-17.152-28.331 13.227-24.789-13.013-22.571 17.237-11.264-3.84-36.395 24.021-6.016 5.333-27.008 26.155 2.688 16.256-18.517 20.053 19.669c36.608 18.261 51.712 28.501 80.299 59.349 32.384 35.115 51.029 67.584 94.208 91.605 31.104 17.28 56.363 23.509 91.264 17.408 32.683-5.632 43.691-25.301 67.84-45.952 2.603 4.651 2.987 5.931 7.211 9.301-1.28-6.059-3.371-12.245-3.968-18.048l-0.085 0.043z" />
<glyph unicode="&#xe916;" glyph-name="npm" d="M0 647.083v-341.333h284.416v-56.832h227.584v56.832h512v341.333h-1024zM284.416 362.752h-56.832v170.667h-56.96v-170.667h-113.664v227.456h227.456v-227.456zM455.083 362.752v-57.003h-113.707v284.459h227.584v-227.499l-113.877 0.043zM967.125 362.752h-56.747v170.667h-57.003v-170.667h-56.96v170.667h-56.747v-170.667h-113.963v227.456h341.419v-227.456zM455.040 533.333h56.96v-113.792h-56.96v113.792z" />
<glyph unicode="&#xe917;" glyph-name="internetexplorer" d="M972.8 645.077c48 115.2 51.2 211.2-6.4 268.8-64 63.957-217.6 44.8-380.757-32h-19.2c-115.2 0-227.157-41.643-310.357-115.2-70.4-64-121.6-147.2-144-240 16 19.2 105.6 124.8 208 182.4 3.2 0 28.8 16 28.8 16-3.2 0-51.2-48-60.8-57.6-224-230.4-355.157-579.157-252.757-681.515 67.157-67.2 188.757-51.2 329.557 25.6 60.8-28.8 128-41.6 201.557-41.6 96 0 185.6 25.6 262.4 76.8 79.957 51.2 137.557 131.157 172.8 223.957h-249.6c-32-60.8-105.6-102.4-182.4-102.4-108.8 0-198.4 89.6-201.557 192v9.6h652.715v9.6c0 16 3.2 35.2 3.2 47.957 0 76.8-19.2 150.4-51.2 217.6zM105.685 5.12c-51.2 51.2-35.157 150.357 25.6 268.757 28.8-80 76.8-150.4 137.6-201.6 19.2-16 41.6-32 64-44.8-102.4-54.357-185.6-64-227.2-22.357zM761.643 491.435h-390.357v3.2c6.4 99.2 99.157 185.6 207.957 185.6 102.4 0 185.6-80 192-185.6v-3.2zM956.8 670.635c-19.2 32-44.8 64-73.6 89.6-43.163 40.22-94.158 72.713-150.357 94.873l-3.243 1.127c102.4 47.957 188.8 54.357 233.6 9.557 35.2-41.6 32-111.957-6.4-195.157 0-3.2 0-3.2 0 0 0-3.2 0-3.2 0 0z" />
<glyph unicode="&#xe918;" glyph-name="add-outline" d="M563.2 512h204.8v-102.4h-204.8v-204.8h-102.4v204.8h-204.8v102.4h204.8v204.8h102.4v-204.8zM512-51.2c-282.77 0-512 229.23-512 512s229.23 512 512 512v0c282.77 0 512-229.23 512-512s-229.23-512-512-512v0zM512 51.2c226.216 0 409.6 183.384 409.6 409.6s-183.384 409.6-409.6 409.6v0c-226.216 0-409.6-183.384-409.6-409.6s183.384-409.6 409.6-409.6v0z" />
<glyph unicode="&#xe919;" glyph-name="add-solid" d="M563.2 512v204.8h-102.4v-204.8h-204.8v-102.4h204.8v-204.8h102.4v204.8h204.8v102.4h-204.8zM512-51.2c-282.77 0-512 229.23-512 512s229.23 512 512 512v0c282.77 0 512-229.23 512-512s-229.23-512-512-512v0z" />
<glyph unicode="&#xe91a;" glyph-name="align-justified" d="M51.2 921.6h921.6v-102.4h-921.6v102.4zM51.2 512h921.6v-102.4h-921.6v102.4zM51.2 102.4h921.6v-102.4h-921.6v102.4zM51.2 716.8h921.6v-102.4h-921.6v102.4zM51.2 307.2h921.6v-102.4h-921.6v102.4z" />
<glyph unicode="&#xe91b;" glyph-name="align-left" d="M51.2 921.6h921.6v-102.4h-921.6v102.4zM51.2 512h921.6v-102.4h-921.6v102.4zM51.2 102.4h921.6v-102.4h-921.6v102.4zM51.2 716.8h614.4v-102.4h-614.4v102.4zM51.2 307.2h614.4v-102.4h-614.4v102.4z" />
<glyph unicode="&#xe91c;" glyph-name="align-right" d="M51.2 921.6h921.6v-102.4h-921.6v102.4zM51.2 512h921.6v-102.4h-921.6v102.4zM51.2 102.4h921.6v-102.4h-921.6v102.4zM358.4 716.8h614.4v-102.4h-614.4v102.4zM358.4 307.2h614.4v-102.4h-614.4v102.4z" />
<glyph unicode="&#xe91d;" glyph-name="arrow-down" d="M460.8 144.794l-310.835 310.835-72.397-72.397 434.432-434.432 434.432 434.432-72.397 72.397-310.835-310.835v828.006h-102.4z" />
<glyph unicode="&#xe91e;" glyph-name="arrow-left" d="M195.994 512l310.835 310.835-72.397 72.397-434.432-434.432 434.432-434.432 72.397 72.397-310.835 310.835h828.006v102.4h-828.006z" />
<glyph unicode="&#xe91f;" glyph-name="arrow-outline-down" d="M512-51.2c-282.77 0-512 229.23-512 512s229.23 512 512 512v0c282.77 0 512-229.23 512-512s-229.23-512-512-512v0zM512 51.2c226.216 0 409.6 183.384 409.6 409.6s-183.384 409.6-409.6 409.6v0c-226.216 0-409.6-183.384-409.6-409.6s183.384-409.6 409.6-409.6v0zM409.6 460.8v256h204.8v-256h153.6l-256-256-256 256h153.6z" />
<glyph unicode="&#xe920;" glyph-name="arrow-outline-left" d="M0 460.8c0 282.77 229.23 512 512 512s512-229.23 512-512v0c0-282.77-229.23-512-512-512s-512 229.23-512 512v0zM102.4 460.8c0-226.216 183.384-409.6 409.6-409.6s409.6 183.384 409.6 409.6v0c0 226.216-183.384 409.6-409.6 409.6s-409.6-183.384-409.6-409.6v0zM512 563.2h256v-204.8h-256v-153.6l-256 256 256 256v-153.6z" />
<glyph unicode="&#xe921;" glyph-name="arrow-outline-right" d="M1024 460.8c0-282.77-229.23-512-512-512s-512 229.23-512 512v0c0 282.77 229.23 512 512 512s512-229.23 512-512v0zM921.6 460.8c0 226.216-183.384 409.6-409.6 409.6s-409.6-183.384-409.6-409.6v0c0-226.216 183.384-409.6 409.6-409.6s409.6 183.384 409.6 409.6v0zM512 358.4h-256v204.8h256v153.6l256-256-256-256v153.6z" />
<glyph unicode="&#xe922;" glyph-name="arrow-outline-up" d="M512 972.8c282.77 0 512-229.23 512-512s-229.23-512-512-512v0c-282.77 0-512 229.23-512 512s229.23 512 512 512v0zM512 870.4c-226.216 0-409.6-183.384-409.6-409.6s183.384-409.6 409.6-409.6v0c226.216 0 409.6 183.384 409.6 409.6s-183.384 409.6-409.6 409.6v0zM614.4 460.8v-256h-204.8v256h-153.6l256 256 256-256h-153.6z" />
<glyph unicode="&#xe923;" glyph-name="arrow-right" d="M828.006 512l-310.835 310.835 72.397 72.397 434.432-434.432-434.432-434.432-72.397 72.397 310.835 310.835h-828.006v102.4z" />
<glyph unicode="&#xe924;" glyph-name="arrow-thick-down" d="M358.4 460.8v409.6h307.2v-409.6h256l-409.6-409.6-409.6 409.6h256z" />
<glyph unicode="&#xe925;" glyph-name="arrow-thick-left" d="M512 307.2h409.6v307.2h-409.6v256l-409.6-409.6 409.6-409.6v256z" />
<glyph unicode="&#xe926;" glyph-name="arrow-thick-right" d="M512 614.4h-409.6v-307.2h409.6v-256l409.6 409.6-409.6 409.6v-256z" />
<glyph unicode="&#xe927;" glyph-name="arrow-thick-up" d="M358.4 460.8v-409.6h307.2v409.6h256l-409.6 409.6-409.6-409.6h256z" />
<glyph unicode="&#xe928;" glyph-name="arrow-thin-down" d="M460.8 144.794l-310.835 310.835-72.397-72.397 434.432-434.432 434.432 434.432-72.397 72.397-310.835-310.835v828.006h-102.4z" />
<glyph unicode="&#xe929;" glyph-name="arrow-thin-left" d="M195.994 512l310.835 310.835-72.397 72.397-434.432-434.432 434.432-434.432 72.397 72.397-310.835 310.835h828.006v102.4h-828.006z" />
<glyph unicode="&#xe92a;" glyph-name="arrow-thin-right" d="M828.006 512l-310.835 310.835 72.397 72.397 434.432-434.432-434.432-434.432-72.397 72.397 310.835 310.835h-828.006v102.4z" />
<glyph unicode="&#xe92b;" glyph-name="arrow-thin-up" d="M460.8 776.806l-310.835-310.835-72.397 72.397 434.432 434.432 434.432-434.432-72.397-72.397-310.835 310.835v-828.006h-102.4v828.006z" />
<glyph unicode="&#xe92c;" glyph-name="arrow-up" d="M460.8 776.806l-310.835-310.835-72.397 72.397 434.432 434.432 434.432-434.432-72.397-72.397-310.835 310.835v-828.006h-102.4v828.006z" />
<glyph unicode="&#xe92d;" glyph-name="at-symbol" d="M696.32 283.136c-46.612-48.782-112.182-79.108-184.835-79.108-141.102 0-255.488 114.386-255.488 255.488 0 0.451 0.001 0.902 0.004 1.353v-0.070c0 141.385 114.615 256 256 256 57.921 0 111.348-19.235 154.244-51.667l-0.644 0.467v51.2h102.4v-332.8c0-42.415 34.385-76.8 76.8-76.8s76.8 34.385 76.8 76.8v0 76.8c-0.167 226.090-183.487 409.307-409.6 409.307-226.216 0-409.6-183.384-409.6-409.6s183.384-409.6 409.6-409.6c66.818 0 129.898 15.999 185.62 44.376l-2.325-1.074 46.080-91.648c-66.813-34.208-145.753-54.255-229.376-54.255-282.77 0-512 229.23-512 512s229.23 512 512 512c282.596 0 511.718-228.948 512-511.478v-0.027h-0.512v-76.8c0.001-0.159 0.001-0.346 0.001-0.534 0-98.969-80.231-179.2-179.2-179.2-61.529 0-115.815 31.010-148.083 78.253l-0.398 0.617zM512 307.2c84.831 0 153.6 68.769 153.6 153.6s-68.769 153.6-153.6 153.6v0c-84.831 0-153.6-68.769-153.6-153.6s68.769-153.6 153.6-153.6v0z" />
<glyph unicode="&#xe92e;" glyph-name="attachment" d="M768 819.2h-409.6c-197.939 0-358.4-160.461-358.4-358.4s160.461-358.4 358.4-358.4v0h409.6v102.4h-409.6c-141.385 0-256 114.615-256 256s114.615 256 256 256v0h409.6c84.831 0 153.6-68.769 153.6-153.6s-68.769-153.6-153.6-153.6v0h-409.6c-28.277 0-51.2 22.923-51.2 51.2s22.923 51.2 51.2 51.2v0h409.6v102.4h-409.6c-84.831 0-153.6-68.769-153.6-153.6s68.769-153.6 153.6-153.6v0h409.6c141.385 0 256 114.615 256 256s-114.615 256-256 256v0z" />
<glyph unicode="&#xe92f;" glyph-name="backspace" d="M0 460.8l358.4 358.4h665.6v-716.8h-665.6l-358.4 358.4zM737.792 460.8l109.056 108.544-72.704 72.704-108.544-109.568-108.544 109.056-72.704-72.704 109.568-108.032-109.056-108.544 72.704-72.704 108.032 109.568 108.544-109.056 72.704 72.704-109.568 108.032z" />
<glyph unicode="&#xe930;" glyph-name="backward" d="M972.8 716.8v-512l-460.8 256 460.8 256zM512 716.8v-512l-460.8 256 460.8 256z" />
<glyph unicode="&#xe931;" glyph-name="backward-step" d="M204.8 716.8h153.6v-512h-153.6v512zM819.2 716.8v-512l-460.8 256 460.8 256z" />
<glyph unicode="&#xe932;" glyph-name="badge" d="M512 358.4c-169.662 0-307.2 137.538-307.2 307.2s137.538 307.2 307.2 307.2v0c169.662 0 307.2-137.538 307.2-307.2s-137.538-307.2-307.2-307.2v0zM512 512c84.831 0 153.6 68.769 153.6 153.6s-68.769 153.6-153.6 153.6v0c-84.831 0-153.6-68.769-153.6-153.6s68.769-153.6 153.6-153.6v0zM716.8 371.2v-422.4l-204.8 204.8-204.8-204.8v422.4c57.063-40.423 128.106-64.616 204.8-64.616s147.737 24.193 205.915 65.365l-1.115-0.749z" />
<glyph unicode="&#xe933;" glyph-name="battery-full" d="M0 665.6c0 56.32 46.080 102.4 102.4 102.4h819.2c56.554 0 102.4-45.846 102.4-102.4v0-409.6c0-56.554-45.846-102.4-102.4-102.4v0h-819.2c-56.554 0-102.4 45.846-102.4 102.4v0 409.6zM102.4 665.6v-409.6h819.2v409.6h-819.2zM153.6 614.4h204.8v-307.2h-204.8v307.2zM409.6 614.4h204.8v-307.2h-204.8v307.2zM665.6 614.4h204.8v-307.2h-204.8v307.2z" />
<glyph unicode="&#xe934;" glyph-name="battery-half" d="M0 665.6c0 56.32 46.080 102.4 102.4 102.4h819.2c56.554 0 102.4-45.846 102.4-102.4v0-409.6c0-56.554-45.846-102.4-102.4-102.4v0h-819.2c-56.554 0-102.4 45.846-102.4 102.4v0 409.6zM102.4 665.6v-409.6h819.2v409.6h-819.2zM153.6 614.4h204.8v-307.2h-204.8v307.2zM409.6 614.4h204.8v-307.2h-204.8v307.2z" />
<glyph unicode="&#xe935;" glyph-name="battery-low" d="M0 665.6c0 56.32 46.080 102.4 102.4 102.4h819.2c56.554 0 102.4-45.846 102.4-102.4v0-409.6c0-56.554-45.846-102.4-102.4-102.4v0h-819.2c-56.554 0-102.4 45.846-102.4 102.4v0 409.6zM102.4 665.6v-409.6h819.2v409.6h-819.2zM153.6 614.4h204.8v-307.2h-204.8v307.2z" />
<glyph unicode="&#xe936;" glyph-name="block" d="M0 460.8c0 282.77 229.23 512 512 512s512-229.23 512-512v0c0-282.77-229.23-512-512-512s-512 229.23-512 512v0zM835.584 711.68l-574.976-573.952c68.628-53.726 156.18-86.154 251.306-86.154 226.216 0 409.6 183.384 409.6 409.6 0 94.998-32.34 182.442-86.612 251.924l0.682-0.906zM763.392 784.384c-68.81 54.208-156.742 86.945-252.321 86.945-226.216 0-409.6-183.384-409.6-409.6 0-95.578 32.737-183.511 87.609-253.196l-0.664 0.875 574.976 574.976z" />
<glyph unicode="&#xe937;" glyph-name="bookmark" d="M102.4 870.4c0 56.32 46.080 102.4 102.4 102.4h614.4c56.554 0 102.4-45.846 102.4-102.4v0-921.6l-409.6 204.8-409.6-204.8v921.6z" />
<glyph unicode="&#xe938;" glyph-name="bookmarkcopy2" d="M921.6 358.4v-51.2h-512v-256l-307.2 307.2 307.2 307.2v-256h409.6v460.8h102.4z" />
<glyph unicode="&#xe939;" glyph-name="bookmarkcopy3" d="M179.2 307.2h435.2v-256l307.2 307.2-307.2 307.2v-256h-409.6v460.8h-102.4v-563.2z" />
<glyph unicode="&#xe93a;" glyph-name="bookmark-outline" d="M102.4 870.4c0 56.32 46.080 102.4 102.4 102.4h614.4c56.554 0 102.4-45.846 102.4-102.4v0-921.6l-409.6 204.8-409.6-204.8v921.6zM204.8 870.4v-768l307.2 153.6 307.2-153.6v768h-614.4z" />
<glyph unicode="&#xe93b;" glyph-name="bookmark-outline-add" d="M102.4 870.4c0 56.32 46.080 102.4 102.4 102.4h614.4c56.554 0 102.4-45.846 102.4-102.4v0-921.6l-409.6 204.8-409.6-204.8v921.6zM204.8 870.4v-768l307.2 153.6 307.2-153.6v768h-614.4zM460.8 614.4v102.4h102.4v-102.4h102.4v-102.4h-102.4v-102.4h-102.4v102.4h-102.4v102.4h102.4z" />
<glyph unicode="&#xe93c;" glyph-name="border-all" d="M563.2 409.6v-307.2h307.2v307.2h-307.2zM563.2 512h307.2v307.2h-307.2v-307.2zM460.8 409.6h-307.2v-307.2h307.2v307.2zM460.8 512v307.2h-307.2v-307.2h307.2zM51.2 51.2v870.4h921.6v-921.6h-921.6v51.2z" />
<glyph unicode="&#xe93d;" glyph-name="border-bottom" d="M51.2 921.6h102.4v-102.4h-102.4v102.4zM51.2 716.8h102.4v-102.4h-102.4v102.4zM51.2 512h102.4v-102.4h-102.4v102.4zM51.2 307.2h102.4v-102.4h-102.4v102.4zM51.2 102.4h921.6v-102.4h-921.6v102.4zM256 921.6h102.4v-102.4h-102.4v102.4zM256 512h102.4v-102.4h-102.4v102.4zM460.8 921.6h102.4v-102.4h-102.4v102.4zM460.8 716.8h102.4v-102.4h-102.4v102.4zM460.8 512h102.4v-102.4h-102.4v102.4zM460.8 307.2h102.4v-102.4h-102.4v102.4zM665.6 921.6h102.4v-102.4h-102.4v102.4zM665.6 512h102.4v-102.4h-102.4v102.4zM870.4 921.6h102.4v-102.4h-102.4v102.4zM870.4 716.8h102.4v-102.4h-102.4v102.4zM870.4 512h102.4v-102.4h-102.4v102.4zM870.4 307.2h102.4v-102.4h-102.4v102.4z" />
<glyph unicode="&#xe93e;" glyph-name="border-horizontal" d="M51.2 921.6h102.4v-102.4h-102.4v102.4zM51.2 716.8h102.4v-102.4h-102.4v102.4zM51.2 512h921.6v-102.4h-921.6v102.4zM51.2 307.2h102.4v-102.4h-102.4v102.4zM51.2 102.4h102.4v-102.4h-102.4v102.4zM256 921.6h102.4v-102.4h-102.4v102.4zM256 102.4h102.4v-102.4h-102.4v102.4zM460.8 921.6h102.4v-102.4h-102.4v102.4zM460.8 716.8h102.4v-102.4h-102.4v102.4zM460.8 307.2h102.4v-102.4h-102.4v102.4zM460.8 102.4h102.4v-102.4h-102.4v102.4zM665.6 921.6h102.4v-102.4h-102.4v102.4zM665.6 102.4h102.4v-102.4h-102.4v102.4zM870.4 921.6h102.4v-102.4h-102.4v102.4zM870.4 716.8h102.4v-102.4h-102.4v102.4zM870.4 307.2h102.4v-102.4h-102.4v102.4zM870.4 102.4h102.4v-102.4h-102.4v102.4z" />
<glyph unicode="&#xe93f;" glyph-name="border-inner" d="M460.8 512v409.6h102.4v-409.6h409.6v-102.4h-409.6v-409.6h-102.4v409.6h-409.6v102.4h409.6zM51.2 921.6h102.4v-102.4h-102.4v102.4zM51.2 716.8h102.4v-102.4h-102.4v102.4zM51.2 307.2h102.4v-102.4h-102.4v102.4zM51.2 102.4h102.4v-102.4h-102.4v102.4zM256 921.6h102.4v-102.4h-102.4v102.4zM256 102.4h102.4v-102.4h-102.4v102.4zM665.6 921.6h102.4v-102.4h-102.4v102.4zM665.6 102.4h102.4v-102.4h-102.4v102.4zM870.4 921.6h102.4v-102.4h-102.4v102.4zM870.4 716.8h102.4v-102.4h-102.4v102.4zM870.4 307.2h102.4v-102.4h-102.4v102.4zM870.4 102.4h102.4v-102.4h-102.4v102.4z" />
<glyph unicode="&#xe940;" glyph-name="border-left" d="M51.2 921.6h102.4v-921.6h-102.4v921.6zM256 921.6h102.4v-102.4h-102.4v102.4zM256 512h102.4v-102.4h-102.4v102.4zM256 102.4h102.4v-102.4h-102.4v102.4zM460.8 921.6h102.4v-102.4h-102.4v102.4zM460.8 716.8h102.4v-102.4h-102.4v102.4zM460.8 512h102.4v-102.4h-102.4v102.4zM460.8 307.2h102.4v-102.4h-102.4v102.4zM460.8 102.4h102.4v-102.4h-102.4v102.4zM665.6 921.6h102.4v-102.4h-102.4v102.4zM665.6 512h102.4v-102.4h-102.4v102.4zM665.6 102.4h102.4v-102.4h-102.4v102.4zM870.4 921.6h102.4v-102.4h-102.4v102.4zM870.4 716.8h102.4v-102.4h-102.4v102.4zM870.4 512h102.4v-102.4h-102.4v102.4zM870.4 307.2h102.4v-102.4h-102.4v102.4zM870.4 102.4h102.4v-102.4h-102.4v102.4z" />
<glyph unicode="&#xe941;" glyph-name="border-none" d="M51.2 921.6h102.4v-102.4h-102.4v102.4zM51.2 716.8h102.4v-102.4h-102.4v102.4zM51.2 512h102.4v-102.4h-102.4v102.4zM51.2 307.2h102.4v-102.4h-102.4v102.4zM51.2 102.4h102.4v-102.4h-102.4v102.4zM256 921.6h102.4v-102.4h-102.4v102.4zM256 512h102.4v-102.4h-102.4v102.4zM256 102.4h102.4v-102.4h-102.4v102.4zM460.8 921.6h102.4v-102.4h-102.4v102.4zM460.8 716.8h102.4v-102.4h-102.4v102.4zM460.8 512h102.4v-102.4h-102.4v102.4zM460.8 307.2h102.4v-102.4h-102.4v102.4zM460.8 102.4h102.4v-102.4h-102.4v102.4zM665.6 921.6h102.4v-102.4h-102.4v102.4zM665.6 512h102.4v-102.4h-102.4v102.4zM665.6 102.4h102.4v-102.4h-102.4v102.4zM870.4 921.6h102.4v-102.4h-102.4v102.4zM870.4 716.8h102.4v-102.4h-102.4v102.4zM870.4 512h102.4v-102.4h-102.4v102.4zM870.4 307.2h102.4v-102.4h-102.4v102.4zM870.4 102.4h102.4v-102.4h-102.4v102.4z" />
<glyph unicode="&#xe942;" glyph-name="border-outer" d="M102.4 0h-51.2v921.6h921.6v-921.6h-870.4zM153.6 102.4h716.8v716.8h-716.8v-716.8zM665.6 512h102.4v-102.4h-102.4v102.4zM460.8 512h102.4v-102.4h-102.4v102.4zM256 512h102.4v-102.4h-102.4v102.4zM460.8 716.8h102.4v-102.4h-102.4v102.4zM460.8 307.2h102.4v-102.4h-102.4v102.4z" />
<glyph unicode="&#xe943;" glyph-name="border-right" d="M256 921.6h102.4v-102.4h-102.4v102.4zM256 512h102.4v-102.4h-102.4v102.4zM256 102.4h102.4v-102.4h-102.4v102.4zM460.8 921.6h102.4v-102.4h-102.4v102.4zM460.8 716.8h102.4v-102.4h-102.4v102.4zM460.8 512h102.4v-102.4h-102.4v102.4zM460.8 307.2h102.4v-102.4h-102.4v102.4zM460.8 102.4h102.4v-102.4h-102.4v102.4zM665.6 921.6h102.4v-102.4h-102.4v102.4zM665.6 512h102.4v-102.4h-102.4v102.4zM665.6 102.4h102.4v-102.4h-102.4v102.4zM51.2 921.6h102.4v-102.4h-102.4v102.4zM51.2 716.8h102.4v-102.4h-102.4v102.4zM51.2 512h102.4v-102.4h-102.4v102.4zM51.2 307.2h102.4v-102.4h-102.4v102.4zM51.2 102.4h102.4v-102.4h-102.4v102.4zM870.4 921.6h102.4v-921.6h-102.4v921.6z" />
<glyph unicode="&#xe944;" glyph-name="border-top" d="M51.2 921.6h921.6v-102.4h-921.6v102.4zM51.2 716.8h102.4v-102.4h-102.4v102.4zM51.2 512h102.4v-102.4h-102.4v102.4zM51.2 307.2h102.4v-102.4h-102.4v102.4zM51.2 102.4h102.4v-102.4h-102.4v102.4zM256 512h102.4v-102.4h-102.4v102.4zM256 102.4h102.4v-102.4h-102.4v102.4zM460.8 716.8h102.4v-102.4h-102.4v102.4zM460.8 512h102.4v-102.4h-102.4v102.4zM460.8 307.2h102.4v-102.4h-102.4v102.4zM460.8 102.4h102.4v-102.4h-102.4v102.4zM665.6 512h102.4v-102.4h-102.4v102.4zM665.6 102.4h102.4v-102.4h-102.4v102.4zM870.4 716.8h102.4v-102.4h-102.4v102.4zM870.4 512h102.4v-102.4h-102.4v102.4zM870.4 307.2h102.4v-102.4h-102.4v102.4zM870.4 102.4h102.4v-102.4h-102.4v102.4z" />
<glyph unicode="&#xe945;" glyph-name="border-vertical" d="M51.2 921.6h102.4v-102.4h-102.4v102.4zM51.2 716.8h102.4v-102.4h-102.4v102.4zM51.2 512h102.4v-102.4h-102.4v102.4zM51.2 307.2h102.4v-102.4h-102.4v102.4zM51.2 102.4h102.4v-102.4h-102.4v102.4zM256 921.6h102.4v-102.4h-102.4v102.4zM256 512h102.4v-102.4h-102.4v102.4zM256 102.4h102.4v-102.4h-102.4v102.4zM460.8 921.6h102.4v-921.6h-102.4v921.6zM665.6 921.6h102.4v-102.4h-102.4v102.4zM665.6 512h102.4v-102.4h-102.4v102.4zM665.6 102.4h102.4v-102.4h-102.4v102.4zM870.4 921.6h102.4v-102.4h-102.4v102.4zM870.4 716.8h102.4v-102.4h-102.4v102.4zM870.4 512h102.4v-102.4h-102.4v102.4zM870.4 307.2h102.4v-102.4h-102.4v102.4zM870.4 102.4h102.4v-102.4h-102.4v102.4z" />
<glyph unicode="&#xe946;" glyph-name="box" d="M0 870.4c0 56.32 46.080 102.4 102.4 102.4h819.2c56.554 0 102.4-45.846 102.4-102.4v0-102.4h-1024v102.4zM51.2 716.8h921.6v-665.6c0-56.554-45.846-102.4-102.4-102.4v0h-716.8c-56.554 0-102.4 45.846-102.4 102.4v0 665.6zM358.4 614.4v-102.4h307.2v102.4h-307.2z" />
<glyph unicode="&#xe947;" glyph-name="brightness-down" d="M512 307.2c-84.831 0-153.6 68.769-153.6 153.6s68.769 153.6 153.6 153.6v0c84.831 0 153.6-68.769 153.6-153.6s-68.769-153.6-153.6-153.6v0zM460.8 768c0 28.277 22.923 51.2 51.2 51.2s51.2-22.923 51.2-51.2v0c0-28.277-22.923-51.2-51.2-51.2s-51.2 22.923-51.2 51.2v0zM693.248 714.24c9.446 10.984 23.36 17.897 38.889 17.897 28.277 0 51.2-22.923 51.2-51.2 0-15.528-6.913-29.442-17.829-38.832l-0.067-0.057c-9.446-10.984-23.36-17.897-38.889-17.897-28.277 0-51.2 22.923-51.2 51.2 0 15.528 6.913 29.442 17.829 38.832l0.067 0.057zM819.2 512c28.277 0 51.2-22.923 51.2-51.2s-22.923-51.2-51.2-51.2v0c-28.277 0-51.2 22.923-51.2 51.2s22.923 51.2 51.2 51.2v0zM765.44 279.552c10.984-9.446 17.897-23.36 17.897-38.889 0-28.277-22.923-51.2-51.2-51.2-15.528 0-29.442 6.913-38.832 17.829l-0.057 0.067c-10.984 9.446-17.897 23.36-17.897 38.889 0 28.277 22.923 51.2 51.2 51.2 15.528 0 29.442-6.913 38.832-17.829l0.057-0.067zM563.2 153.6c0-28.277-22.923-51.2-51.2-51.2s-51.2 22.923-51.2 51.2v0c0 28.277 22.923 51.2 51.2 51.2s51.2-22.923 51.2-51.2v0zM330.752 207.36c-9.446-10.984-23.36-17.897-38.889-17.897-28.277 0-51.2 22.923-51.2 51.2 0 15.528 6.913 29.442 17.829 38.832l0.067 0.057c9.446 10.984 23.36 17.897 38.889 17.897 28.277 0 51.2-22.923 51.2-51.2 0-15.528-6.913-29.442-17.829-38.832l-0.067-0.057zM204.8 409.6c-28.277 0-51.2 22.923-51.2 51.2s22.923 51.2 51.2 51.2v0c28.277 0 51.2-22.923 51.2-51.2s-22.923-51.2-51.2-51.2v0zM258.56 642.048c-10.984 9.446-17.897 23.36-17.897 38.889 0 28.277 22.923 51.2 51.2 51.2 15.528 0 29.442-6.913 38.832-17.829l0.057-0.067c10.984-9.446 17.897-23.36 17.897-38.889 0-28.277-22.923-51.2-51.2-51.2-15.528 0-29.442 6.913-38.832 17.829l-0.057 0.067z" />
<glyph unicode="&#xe948;" glyph-name="brightness-up" d="M512 256c-113.108 0-204.8 91.692-204.8 204.8s91.692 204.8 204.8 204.8v0c113.108 0 204.8-91.692 204.8-204.8s-91.692-204.8-204.8-204.8v0zM460.8 921.6c0 28.277 22.923 51.2 51.2 51.2s51.2-22.923 51.2-51.2v0-102.4c0-28.277-22.923-51.2-51.2-51.2s-51.2 22.923-51.2 51.2v0 102.4zM801.28 822.272c9.446 10.984 23.36 17.897 38.889 17.897 28.277 0 51.2-22.923 51.2-51.2 0-15.528-6.913-29.442-17.829-38.832l-0.067-0.057-71.68-71.68c-9.446-10.984-23.36-17.897-38.889-17.897-28.277 0-51.2 22.923-51.2 51.2 0 15.528 6.913 29.442 17.829 38.832l0.067 0.057 71.68 71.68zM972.288 512c28.277 0 51.2-22.923 51.2-51.2s-22.923-51.2-51.2-51.2v0h-101.376c-28.277 0-51.2 22.923-51.2 51.2s22.923 51.2 51.2 51.2v0h101.376zM873.472 171.52c10.984-9.446 17.897-23.36 17.897-38.889 0-28.277-22.923-51.2-51.2-51.2-15.528 0-29.442 6.913-38.832 17.829l-0.057 0.067-71.68 71.68c-10.984 9.446-17.897 23.36-17.897 38.889 0 28.277 22.923 51.2 51.2 51.2 15.528 0 29.442-6.913 38.832-17.829l0.057-0.067 71.68-71.68zM563.2 0.512c0-28.277-22.923-51.2-51.2-51.2s-51.2 22.923-51.2 51.2v0 101.376c0 28.277 22.923 51.2 51.2 51.2s51.2-22.923 51.2-51.2v0-101.376zM222.72 99.328c-9.446-10.984-23.36-17.897-38.889-17.897-28.277 0-51.2 22.923-51.2 51.2 0 15.528 6.913 29.442 17.829 38.832l0.067 0.057 71.68 71.68c9.446 10.984 23.36 17.897 38.889 17.897 28.277 0 51.2-22.923 51.2-51.2 0-15.528-6.913-29.442-17.829-38.832l-0.067-0.057-71.68-71.68zM51.712 409.6c-28.277 0-51.2 22.923-51.2 51.2s22.923 51.2 51.2 51.2v0h101.376c28.277 0 51.2-22.923 51.2-51.2s-22.923-51.2-51.2-51.2v0h-101.376zM150.528 750.080c-10.984 9.446-17.897 23.36-17.897 38.889 0 28.277 22.923 51.2 51.2 51.2 15.528 0 29.442-6.913 38.832-17.829l0.057-0.067 71.68-71.68c10.984-9.446 17.897-23.36 17.897-38.889 0-28.277-22.923-51.2-51.2-51.2-15.528 0-29.442 6.913-38.832 17.829l-0.057 0.067-71.68 71.68z" />
<glyph unicode="&#xe949;" glyph-name="browser-window" d="M0 819.2c0 56.32 46.080 102.4 102.4 102.4h819.2c56.554 0 102.4-45.846 102.4-102.4v0-716.8c0-56.554-45.846-102.4-102.4-102.4v0h-819.2c-56.554 0-102.4 45.846-102.4 102.4v0 716.8zM102.4 716.8v-614.4h819.2v614.4h-819.2z" />
<glyph unicode="&#xe94a;" glyph-name="browser-window-new" d="M460.8 460.8v102.4h102.4v-102.4h102.4v-102.4h-102.4v-102.4h-102.4v102.4h-102.4v102.4h102.4zM0 819.2c0 56.32 46.080 102.4 102.4 102.4h819.2c56.554 0 102.4-45.846 102.4-102.4v0-716.8c0-56.554-45.846-102.4-102.4-102.4v0h-819.2c-56.554 0-102.4 45.846-102.4 102.4v0 716.8zM102.4 716.8v-614.4h819.2v614.4h-819.2z" />
<glyph unicode="&#xe94b;" glyph-name="browser-window-open" d="M0 819.2c0 56.32 46.080 102.4 102.4 102.4h819.2c56.554 0 102.4-45.846 102.4-102.4v0-716.8c0-56.554-45.846-102.4-102.4-102.4v0h-819.2c-56.554 0-102.4 45.846-102.4 102.4v0 716.8zM102.4 716.8v-614.4h819.2v614.4h-819.2zM512 563.2l204.8-256h-409.6l204.8 256z" />
<glyph unicode="&#xe94c;" glyph-name="bug" d="M783.36 210.432l141.824-141.824c9.201-9.255 14.889-22.011 14.889-36.096s-5.687-26.842-14.891-36.098l0.002 0.002c-9.255-9.201-22.011-14.889-36.096-14.889s-26.842 5.687-36.098 14.891l0.002-0.002-132.608 132.096c-42.249-39.19-95.857-66.691-155.351-77.048l-1.833-0.264v458.752c0 28.277-22.923 51.2-51.2 51.2s-51.2-22.923-51.2-51.2v0-458.752c-61.334 10.59-114.949 38.098-157.377 77.489l0.193-0.177-132.608-132.096c-9.255-9.201-22.011-14.889-36.096-14.889s-26.842 5.687-36.098 14.891l0.002-0.002c-9.201 9.255-14.889 22.011-14.889 36.096s5.687 26.842 14.891 36.098l141.822 141.822c-15.247 27.991-26.531 60.547-32.028 95.033l-0.228 1.735h-157.184c-28.277 0-51.2 22.923-51.2 51.2s22.923 51.2 51.2 51.2v0h153.6v132.608l-157.184 157.184c-9.201 9.255-14.889 22.011-14.889 36.096s5.687 26.842 14.891 36.098l-0.002-0.002c9.255 9.201 22.011 14.889 36.096 14.889s26.842-5.687 36.098-14.891l107.518-107.518h569.344l107.52 107.52c9.255 9.201 22.011 14.889 36.096 14.889s26.842-5.687 36.098-14.891l-0.002 0.002c9.201-9.255 14.889-22.011 14.889-36.096s-5.687-26.842-14.891-36.098l-157.182-157.182v-132.608h153.6c28.277 0 51.2-22.923 51.2-51.2s-22.923-51.2-51.2-51.2v0h-157.184c-5.12-34.304-16.384-67.072-32.256-96.768zM768 716.8h-512c0 141.385 114.615 256 256 256s256-114.615 256-256v0z" />
<glyph unicode="&#xe94d;" glyph-name="calendar" d="M51.2 768c0 56.32 46.080 102.4 102.4 102.4h716.8c56.554 0 102.4-45.846 102.4-102.4v0-716.8c0-56.554-45.846-102.4-102.4-102.4v0h-716.8c-56.554 0-102.4 45.846-102.4 102.4v0 716.8zM153.6 665.6v-614.4h716.8v614.4h-716.8zM256 972.8h102.4v-102.4h-102.4v102.4zM665.6 972.8h102.4v-102.4h-102.4v102.4zM256 512h102.4v-102.4h-102.4v102.4zM256 307.2h102.4v-102.4h-102.4v102.4zM460.8 512h102.4v-102.4h-102.4v102.4zM460.8 307.2h102.4v-102.4h-102.4v102.4zM665.6 512h102.4v-102.4h-102.4v102.4zM665.6 307.2h102.4v-102.4h-102.4v102.4z" />
<glyph unicode="&#xe94e;" glyph-name="chart" d="M211.456 358.4h-6.656c-56.357-0.26-101.943-46.006-101.943-102.399 0-56.554 45.846-102.4 102.4-102.4s102.4 45.846 102.4 102.4c0 16.603-3.952 32.284-10.966 46.152l0.268-0.585 105.472 159.232c1.69-0.098 3.667-0.154 5.656-0.154 9.83 0 19.342 1.365 28.356 3.915l-0.732-0.177 79.36-79.36c-2.262-8.030-3.563-17.251-3.563-26.776 0-56.554 45.846-102.4 102.4-102.4s102.4 45.846 102.4 102.4c0 16.663-3.98 32.397-11.042 46.303l0.269-0.583 107.008 159.232h6.656c56.357 0.26 101.943 46.006 101.943 102.399 0 56.554-45.846 102.4-102.4 102.4s-102.4-45.846-102.4-102.4c0-16.603 3.952-32.284 10.966-46.152l-0.268 0.585-105.472-159.232c-1.69 0.098-3.667 0.154-5.656 0.154-9.83 0-19.342-1.365-28.356-3.915l0.732 0.177-79.872 79.36c2.262 8.030 3.563 17.251 3.563 26.776 0 56.554-45.846 102.4-102.4 102.4s-102.4-45.846-102.4-102.4c0-16.663 3.98-32.397 11.042-46.303l-0.269 0.583-106.496-159.232zM0 768c0 56.32 46.080 102.4 102.4 102.4h819.2c56.554 0 102.4-45.846 102.4-102.4v0-614.4c0-56.554-45.846-102.4-102.4-102.4v0h-819.2c-56.554 0-102.4 45.846-102.4 102.4v0 614.4z" />
<glyph unicode="&#xe94f;" glyph-name="chart-bar" d="M51.2 460.8h153.6v-512h-153.6v512zM307.2 972.8h153.6v-1024h-153.6v1024zM563.2 563.2h153.6v-614.4h-153.6v614.4zM819.2 768h153.6v-819.2h-153.6v819.2z" />
<glyph unicode="&#xe950;" glyph-name="chart-pie" d="M1021.44 409.6c-26.89-259.87-244.697-460.793-509.433-460.793-282.77 0-512 229.23-512 512 0 264.736 200.924 482.543 458.597 509.248l2.196 0.184v-560.64h560.64zM1017.344 542.72h-423.424v423.424c217.691-36.271 387.153-205.732 423.011-420.43l0.413-2.994z" />
<glyph unicode="&#xe951;" glyph-name="chat-bubble-dots" d="M512 204.8l-204.8-204.8v204.8h-204.8c-56.554 0-102.4 45.846-102.4 102.4v0 512c0 56.32 46.080 102.4 102.4 102.4h819.2c56.554 0 102.4-45.846 102.4-102.4v0-512c0-56.554-45.846-102.4-102.4-102.4v0h-409.6zM256 614.4v-102.4h102.4v102.4h-102.4zM460.8 614.4v-102.4h102.4v102.4h-102.4zM665.6 614.4v-102.4h102.4v102.4h-102.4z" />
<glyph unicode="&#xe952;" glyph-name="checkmark" d="M0 409.6l102.4 102.4 256-256 563.2 563.2 102.4-102.4-665.6-665.6z" />
<glyph unicode="&#xe953;" glyph-name="checkmark-outline" d="M150.016 98.816c-96.436 93.233-156.308 223.762-156.308 368.276 0 282.77 229.23 512 512 512 144.514 0 275.043-59.872 368.137-156.164l0.138-0.144c88.925-91.979 143.724-217.436 143.724-355.692 0-282.77-229.23-512-512-512-138.256 0-263.713 54.799-355.836 143.863l0.144-0.138zM801.792 171.008c74.164 74.164 120.036 176.621 120.036 289.792 0 226.342-183.486 409.828-409.828 409.828-113.171 0-215.628-45.872-289.792-120.036v0c-74.164-74.164-120.036-176.621-120.036-289.792 0-226.342 183.486-409.828 409.828-409.828 113.171 0 215.628 45.872 289.792 120.036v0zM343.040 497.152l117.76-118.272 220.16 220.16 71.68-72.704-291.84-290.816-189.44 189.44 71.68 72.704z" />
<glyph unicode="&#xe954;" glyph-name="cheveron-down" d="M475.802 309.76l36.198-36.198 289.638 289.638-72.397 72.397-217.242-217.19-217.242 217.19-72.397-72.397z" />
<glyph unicode="&#xe955;" glyph-name="cheveron-left" d="M360.96 496.998l-36.198-36.198 289.638-289.638 72.397 72.397-217.19 217.242 217.19 217.242-72.397 72.397z" />
<glyph unicode="&#xe956;" glyph-name="cheveron-outline-down" d="M1024 460.8c0-282.77-229.23-512-512-512s-512 229.23-512 512v0c0 282.77 229.23 512 512 512s512-229.23 512-512v0zM512 870.4c-226.216 0-409.6-183.384-409.6-409.6s183.384-409.6 409.6-409.6v0c226.216 0 409.6 183.384 409.6 409.6s-183.384 409.6-409.6 409.6v0zM476.16 330.752l-181.76 181.248 72.192 72.192 145.408-143.872 144.896 144.384 72.192-72.704-217.088-217.088-35.84 35.84z" />
<glyph unicode="&#xe957;" glyph-name="cheveron-outline-left" d="M512-51.2c-282.77 0-512 229.23-512 512s229.23 512 512 512v0c282.77 0 512-229.23 512-512s-229.23-512-512-512v0zM921.6 460.8c0 226.216-183.384 409.6-409.6 409.6s-409.6-183.384-409.6-409.6v0c0-226.216 183.384-409.6 409.6-409.6s409.6 183.384 409.6 409.6v0zM381.952 496.64l181.248 181.76 72.192-72.192-143.872-145.408 144.384-144.896-72.704-72.192-217.088 217.088 35.84 35.84z" />
<glyph unicode="&#xe958;" glyph-name="cheveron-outline-right" d="M512 972.8c282.77 0 512-229.23 512-512s-229.23-512-512-512v0c-282.77 0-512 229.23-512 512s229.23 512 512 512v0zM102.4 460.8c0-226.216 183.384-409.6 409.6-409.6s409.6 183.384 409.6 409.6v0c0 226.216-183.384 409.6-409.6 409.6s-409.6-183.384-409.6-409.6v0zM642.048 424.96l-181.248-181.76-72.192 72.192 143.872 145.408-143.36 144.896 71.68 72.192 217.088-217.088-35.84-35.84z" />
<glyph unicode="&#xe959;" glyph-name="cheveron-outline-up" d="M0 460.8c0 282.77 229.23 512 512 512s512-229.23 512-512v0c0-282.77-229.23-512-512-512s-512 229.23-512 512v0zM512 51.2c226.216 0 409.6 183.384 409.6 409.6s-183.384 409.6-409.6 409.6v0c-226.216 0-409.6-183.384-409.6-409.6s183.384-409.6 409.6-409.6v0zM547.84 590.848l181.76-181.248-72.192-72.192-145.408 143.872-144.896-143.36-72.192 71.68 217.088 217.088 35.84-35.84z" />
<glyph unicode="&#xe95a;" glyph-name="cheveron-right" d="M663.040 424.602l36.198 36.198-289.638 289.638-72.397-72.397 217.19-217.242-217.19-217.242 72.397-72.397 253.44 253.44z" />
<glyph unicode="&#xe95b;" glyph-name="cheveron-up" d="M548.198 611.84l-36.198 36.198-289.638-289.638 72.397-72.397 217.242 217.19 217.242-217.19 72.397 72.397z" />
<glyph unicode="&#xe95c;" glyph-name="clipboard" d="M359.936 839.68c10.988 74.998 74.877 131.932 152.064 131.932s141.076-56.934 151.964-131.098l0.1-0.834 103.936-20.48v-51.2h51.2c56.554 0 102.4-45.846 102.4-102.4v0-614.4c0-56.554-45.846-102.4-102.4-102.4v0h-614.4c-56.554 0-102.4 45.846-102.4 102.4v0 614.4c0 56.32 46.080 102.4 102.4 102.4h51.2v51.2l103.936 20.48zM256 665.6h-51.2v-614.4h614.4v614.4h-51.2v-51.2h-512v51.2zM512 768c28.277 0 51.2 22.923 51.2 51.2s-22.923 51.2-51.2 51.2v0c-28.277 0-51.2-22.923-51.2-51.2s22.923-51.2 51.2-51.2v0z" />
<glyph unicode="&#xe95d;" glyph-name="close" d="M512 533.197l-362.035 362.035-72.397-72.397 362.035-362.035-362.035-362.035 72.397-72.397 362.035 362.035 362.035-362.035 72.397 72.397-362.035 362.035 362.035 362.035-72.397 72.397-362.035-362.035z" />
<glyph unicode="&#xe95e;" glyph-name="close-outline" d="M150.016 98.816c-96.436 93.233-156.308 223.762-156.308 368.276 0 282.77 229.23 512 512 512 144.514 0 275.043-59.872 368.137-156.164l0.138-0.144c88.925-91.979 143.724-217.436 143.724-355.692 0-282.77-229.23-512-512-512-138.256 0-263.713 54.799-355.836 143.863l0.144-0.138zM222.208 171.008c74.164-74.164 176.621-120.036 289.792-120.036 226.342 0 409.828 183.486 409.828 409.828 0 113.171-45.872 215.628-120.036 289.792v0c-74.164 74.164-176.621 120.036-289.792 120.036-226.342 0-409.828-183.486-409.828-409.828 0-113.171 45.872-215.628 120.036-289.792v0zM729.088 605.696l-144.896-144.896 144.896-144.896-72.192-72.192-144.896 144.896-144.896-144.896-72.192 72.192 144.896 144.896-144.896 144.896 72.192 72.192 144.896-144.896 144.896 144.896 72.192-72.192z" />
<glyph unicode="&#xe95f;" glyph-name="close-solid" d="M150.016 98.816c-96.436 93.233-156.308 223.762-156.308 368.276 0 282.77 229.23 512 512 512 144.514 0 275.043-59.872 368.137-156.164l0.138-0.144c88.925-91.979 143.724-217.436 143.724-355.692 0-282.77-229.23-512-512-512-138.256 0-263.713 54.799-355.836 143.863l0.144-0.138zM583.68 460.8l144.896 144.896-72.192 72.192-144.384-144.896-144.896 144.896-72.192-72.192 144.896-144.896-144.896-144.896 72.192-72.192 144.896 144.896 144.896-144.896 72.192 72.192-144.896 144.896z" />
<glyph unicode="&#xe960;" glyph-name="cloud" d="M864.256 506.88c91.895-21.475 159.295-102.707 159.295-199.68 0-112.95-91.436-204.544-204.326-204.799h-563.225c-0.076 0-0.167 0-0.257 0-141.385 0-256 114.615-256 256 0 123.353 87.244 226.33 203.394 250.589l1.664 0.291v5.12c0 0.054 0 0.119 0 0.183 0 84.831 68.769 153.6 153.6 153.6 28.694 0 55.55-7.868 78.528-21.564l-0.704 0.389c46.031 45.498 109.339 73.604 179.212 73.604 140.819 0 254.976-114.157 254.976-254.976 0-0.856-0.004-1.712-0.013-2.566l0.001 0.13c0-19.456-2.048-37.888-6.144-56.32z" />
<glyph unicode="&#xe961;" glyph-name="cloud-upload" d="M864.256 506.88c91.895-21.475 159.295-102.707 159.295-199.68 0-112.95-91.436-204.544-204.326-204.799h-563.225c-0.076 0-0.167 0-0.257 0-141.385 0-256 114.615-256 256 0 123.353 87.244 226.33 203.394 250.589l1.664 0.291v5.12c0 0.054 0 0.119 0 0.183 0 84.831 68.769 153.6 153.6 153.6 28.694 0 55.55-7.868 78.528-21.564l-0.704 0.389c46.031 45.498 109.339 73.604 179.212 73.604 140.819 0 254.976-114.157 254.976-254.976 0-0.856-0.004-1.712-0.013-2.566l0.001 0.13c0-19.456-2.048-37.888-6.144-56.32zM563.2 409.6h153.6l-204.8 204.8-204.8-204.8h153.6v-153.6h102.4v153.6z" />
<glyph unicode="&#xe962;" glyph-name="code" d="M35.84 496.64l245.76 245.76 71.68-72.704-207.872-208.896 208.384-208.384-72.192-72.704-281.6 281.088 35.84 35.84zM988.16 424.96l35.84 35.84-281.088 281.088-71.68-72.704 207.36-208.384-208.384-208.384 72.192-72.704 244.736 244.736z" />
<glyph unicode="&#xe963;" glyph-name="cog" d="M201.728 640l-88.064 146.432 72.704 72.704 146.432-88.064c26.624 15.36 56.32 27.648 87.040 35.84l40.96 165.888h102.4l40.96-165.888c30.72-8.192 60.416-20.48 87.040-35.84l146.432 88.064 72.704-72.704-88.064-146.432c15.36-26.624 27.648-56.32 35.84-87.040l165.888-40.96v-102.4l-165.888-40.96c-8.192-30.72-20.48-60.416-35.84-87.040l88.064-146.432-72.704-72.704-146.432 88.064c-26.624-15.36-56.32-27.648-87.040-35.84l-40.96-165.888h-102.4l-40.96 165.888c-30.72 8.192-60.416 20.48-87.040 35.84l-146.432-88.064-72.704 72.704 88.064 146.432c-15.36 26.624-27.648 56.32-35.84 87.040l-165.888 40.96v102.4l165.888 40.96c8.192 30.72 20.48 60.416 35.84 87.040zM512 307.2c84.831 0 153.6 68.769 153.6 153.6s-68.769 153.6-153.6 153.6v0c-84.831 0-153.6-68.769-153.6-153.6s68.769-153.6 153.6-153.6v0z" />
<glyph unicode="&#xe964;" glyph-name="color-palette" d="M460.8-51.2v87.040l0.512 12.288 310.272 310.272h150.528c56.32 0 101.888-45.568 101.888-102.4v-204.8c0-56.554-45.846-102.4-102.4-102.4v0h-460.8zM460.8 119.808v579.584l106.496 105.984c18.453 18.526 43.984 29.989 72.192 29.989s53.739-11.463 72.189-29.986l144.899-144.899c18.402-18.509 29.777-44.022 29.777-72.192s-11.375-53.683-29.782-72.197l0.005 0.005-395.776-396.288zM0 870.912c0 55.808 45.568 101.888 102.4 101.888h204.8c56.554 0 102.4-45.846 102.4-102.4v0-819.2c0-56.554-45.846-102.4-102.4-102.4v0h-204.8c-56.554 0-102.4 45.846-102.4 102.4v0 819.2zM204.8 102.4c28.277 0 51.2 22.923 51.2 51.2s-22.923 51.2-51.2 51.2v0c-28.277 0-51.2-22.923-51.2-51.2s22.923-51.2 51.2-51.2v0z" />
<glyph unicode="&#xe965;" glyph-name="compose" d="M102.4 768v-716.8h716.8v307.2l102.4 102.4v-512h-921.6v921.6h512l-102.4-102.4h-307.2zM629.76 783.36l204.8-204.8-424.96-424.96h-204.8v204.8l424.96 424.96zM701.44 855.040l117.76 117.76 204.8-204.8-117.76-117.76-204.8 204.8z" />
<glyph unicode="&#xe966;" glyph-name="conversation" d="M870.4 409.6v-153.6l-153.6 153.6h-307.2c-56.554 0-102.4 45.846-102.4 102.4v0 358.4c0 56.32 46.080 102.4 102.4 102.4h512c56.554 0 102.4-45.846 102.4-102.4v0-358.4c0-56.554-45.846-102.4-102.4-102.4v0h-51.2zM716.8 307.2v-102.4c0-56.554-45.846-102.4-102.4-102.4v0h-307.2l-153.6-153.6v153.6h-51.2c-56.554 0-102.4 45.846-102.4 102.4v0 358.4c0 56.32 46.080 102.4 102.4 102.4h102.4v-153.6c0-113.108 91.692-204.8 204.8-204.8v0h307.2z" />
<glyph unicode="&#xe967;" glyph-name="copy" d="M307.2 665.6v204.8c0 56.32 46.080 102.4 102.4 102.4h512c56.554 0 102.4-45.846 102.4-102.4v0-512c0-56.554-45.846-102.4-102.4-102.4v0h-204.8v-204.8c0-56.554-45.846-102.4-102.4-102.4v0h-512c-56.554 0-102.4 45.846-102.4 102.4v0 512c0 56.32 46.080 102.4 102.4 102.4h204.8zM409.6 665.6h204.8c56.554 0 102.4-45.846 102.4-102.4v0-204.8h204.8v512h-512v-204.8zM102.4 563.2v-512h512v512h-512z" />
<glyph unicode="&#xe968;" glyph-name="credit-card" d="M921.6 665.6v102.4h-819.2v-102.4h819.2zM921.6 460.8h-819.2v-307.2h819.2v307.2zM0 768c0 56.32 46.080 102.4 102.4 102.4h819.2c56.554 0 102.4-45.846 102.4-102.4v0-614.4c0-56.554-45.846-102.4-102.4-102.4v0h-819.2c-56.554 0-102.4 45.846-102.4 102.4v0 614.4zM204.8 358.4h204.8v-102.4h-204.8v102.4z" />
<glyph unicode="&#xe969;" glyph-name="currency-dollar" d="M512-51.2c-282.77 0-512 229.23-512 512s229.23 512 512 512v0c282.77 0 512-229.23 512-512s-229.23-512-512-512v0zM563.2 204.8h51.2c84.831 0 153.6 68.769 153.6 153.6s-68.769 153.6-153.6 153.6v0h-205.312c-28.277 0-51.2 22.923-51.2 51.2s22.923 51.2 51.2 51.2v0h307.712v102.4h-153.6v102.4h-102.4v-102.4h-51.2c-84.831 0-153.6-68.769-153.6-153.6s68.769-153.6 153.6-153.6v0h204.8c28.277 0 51.2-22.923 51.2-51.2s-22.923-51.2-51.2-51.2v0h-307.2v-102.4h153.6v-102.4h102.4v102.4z" />
<glyph unicode="&#xe96a;" glyph-name="date-add" d="M768 870.4h102.4c56.554 0 102.4-45.846 102.4-102.4v0-716.8c0-56.554-45.846-102.4-102.4-102.4v0h-716.8c-56.554 0-102.4 45.846-102.4 102.4v0 716.8c0 56.32 46.080 102.4 102.4 102.4h102.4v102.4h102.4v-102.4h307.2v102.4h102.4v-102.4zM153.6 665.6v-614.4h716.8v614.4h-716.8zM460.8 409.6v102.4h102.4v-102.4h102.4v-102.4h-102.4v-102.4h-102.4v102.4h-102.4v102.4h102.4z" />
<glyph unicode="&#xe96b;" glyph-name="dial-pad" d="M256 768c-56.554 0-102.4 45.846-102.4 102.4s45.846 102.4 102.4 102.4v0c56.554 0 102.4-45.846 102.4-102.4s-45.846-102.4-102.4-102.4v0zM512 768c-56.554 0-102.4 45.846-102.4 102.4s45.846 102.4 102.4 102.4v0c56.554 0 102.4-45.846 102.4-102.4s-45.846-102.4-102.4-102.4v0zM768 768c-56.554 0-102.4 45.846-102.4 102.4s45.846 102.4 102.4 102.4v0c56.554 0 102.4-45.846 102.4-102.4s-45.846-102.4-102.4-102.4v0zM256 512c-56.554 0-102.4 45.846-102.4 102.4s45.846 102.4 102.4 102.4v0c56.554 0 102.4-45.846 102.4-102.4s-45.846-102.4-102.4-102.4v0zM512 512c-56.554 0-102.4 45.846-102.4 102.4s45.846 102.4 102.4 102.4v0c56.554 0 102.4-45.846 102.4-102.4s-45.846-102.4-102.4-102.4v0zM768 512c-56.554 0-102.4 45.846-102.4 102.4s45.846 102.4 102.4 102.4v0c56.554 0 102.4-45.846 102.4-102.4s-45.846-102.4-102.4-102.4v0zM256 256c-56.554 0-102.4 45.846-102.4 102.4s45.846 102.4 102.4 102.4v0c56.554 0 102.4-45.846 102.4-102.4s-45.846-102.4-102.4-102.4v0zM512 256c-56.554 0-102.4 45.846-102.4 102.4s45.846 102.4 102.4 102.4v0c56.554 0 102.4-45.846 102.4-102.4s-45.846-102.4-102.4-102.4v0zM512-51.2c-56.554 0-102.4 45.846-102.4 102.4s45.846 102.4 102.4 102.4v0c56.554 0 102.4-45.846 102.4-102.4s-45.846-102.4-102.4-102.4v0zM768 256c-56.554 0-102.4 45.846-102.4 102.4s45.846 102.4 102.4 102.4v0c56.554 0 102.4-45.846 102.4-102.4s-45.846-102.4-102.4-102.4v0z" />
<glyph unicode="&#xe96c;" glyph-name="directions" d="M512 972.8l512-512-512-512-512 512 512 512zM307.2 460.8v-153.6h102.4v153.6h153.6v-153.6l204.8 204.8-204.8 204.8v-153.6h-153.6c-56.554 0-102.4-45.846-102.4-102.4v0z" />
<glyph unicode="&#xe96d;" glyph-name="document" d="M204.8 51.2h614.4v614.4h-204.8v204.8h-409.6v-819.2zM102.4 0v972.8h614.4l204.8-204.8v-819.2h-819.2v51.2z" />
<glyph unicode="&#xe96e;" glyph-name="document-add" d="M460.8 460.8v102.4h102.4v-102.4h102.4v-102.4h-102.4v-102.4h-102.4v102.4h-102.4v102.4h102.4zM204.8 51.2h614.4v614.4h-204.8v204.8h-409.6v-819.2zM102.4 0v972.8h614.4l204.8-204.8v-819.2h-819.2v51.2z" />
<glyph unicode="&#xe96f;" glyph-name="dots-horizontal-double" d="M512 512c-56.554 0-102.4 45.846-102.4 102.4s45.846 102.4 102.4 102.4v0c56.554 0 102.4-45.846 102.4-102.4s-45.846-102.4-102.4-102.4v0zM512 204.8c-56.554 0-102.4 45.846-102.4 102.4s45.846 102.4 102.4 102.4v0c56.554 0 102.4-45.846 102.4-102.4s-45.846-102.4-102.4-102.4v0z" />
<glyph unicode="&#xe970;" glyph-name="dots-horizontal-triple" d="M512 358.4c-56.554 0-102.4 45.846-102.4 102.4s45.846 102.4 102.4 102.4v0c56.554 0 102.4-45.846 102.4-102.4s-45.846-102.4-102.4-102.4v0zM512 665.6c-56.554 0-102.4 45.846-102.4 102.4s45.846 102.4 102.4 102.4v0c56.554 0 102.4-45.846 102.4-102.4s-45.846-102.4-102.4-102.4v0zM512 51.2c-56.554 0-102.4 45.846-102.4 102.4s45.846 102.4 102.4 102.4v0c56.554 0 102.4-45.846 102.4-102.4s-45.846-102.4-102.4-102.4v0z" />
<glyph unicode="&#xe971;" glyph-name="download" d="M665.6 563.2v307.2h-307.2v-307.2h-256l409.6-409.6 409.6 409.6h-256zM0 51.2h1024v-102.4h-1024v102.4z" />
<glyph unicode="&#xe972;" glyph-name="duplicate" d="M307.2 665.6v204.8c0 56.32 46.080 102.4 102.4 102.4h512c56.554 0 102.4-45.846 102.4-102.4v0-512c0-56.554-45.846-102.4-102.4-102.4v0h-204.8v-204.8c0-56.554-45.846-102.4-102.4-102.4v0h-512c-56.554 0-102.4 45.846-102.4 102.4v0 512c0 56.32 46.080 102.4 102.4 102.4h204.8zM409.6 665.6h204.8c56.554 0 102.4-45.846 102.4-102.4v0-204.8h204.8v512h-512v-204.8zM102.4 563.2v-512h512v512h-512zM307.2 358.4v102.4h102.4v-102.4h102.4v-102.4h-102.4v-102.4h-102.4v102.4h-102.4v102.4h102.4z" />
<glyph unicode="&#xe973;" glyph-name="edit-copy" d="M307.2 665.6v204.8c0 56.32 46.080 102.4 102.4 102.4h512c56.554 0 102.4-45.846 102.4-102.4v0-512c0-56.554-45.846-102.4-102.4-102.4v0h-204.8v-204.8c0-56.554-45.846-102.4-102.4-102.4v0h-512c-56.554 0-102.4 45.846-102.4 102.4v0 512c0 56.32 46.080 102.4 102.4 102.4h204.8zM409.6 665.6h204.8c56.554 0 102.4-45.846 102.4-102.4v0-204.8h204.8v512h-512v-204.8zM102.4 563.2v-512h512v512h-512z" />
<glyph unicode="&#xe974;" glyph-name="edit-crop" d="M716.8 153.6h-409.6c-56.554 0-102.4 45.846-102.4 102.4v0 409.6h-204.8v102.4h204.8v204.8h102.4v-716.8h716.8v-102.4h-204.8v-204.8h-102.4v204.8zM716.8 307.2v358.4h-358.4v102.4h358.4c56.554 0 102.4-45.846 102.4-102.4v0-358.4h-102.4z" />
<glyph unicode="&#xe975;" glyph-name="edit-cut" d="M500.224 384l273.408-200.192c22.528-16.896 63.488-30.208 91.648-30.208h158.72l-671.232 492.544c3.697 13.593 5.821 29.201 5.821 45.304 0 98.969-80.231 179.2-179.2 179.2s-179.2-80.231-179.2-179.2c0-98.969 80.231-179.2 179.2-179.2 38.242 0 73.686 11.979 102.785 32.389l-0.574-0.382 114.176-83.456-114.176-83.456c-28.653 20.296-64.326 32.444-102.836 32.444-98.969 0-179.2-80.231-179.2-179.2s80.231-179.2 179.2-179.2c98.969 0 179.2 80.231 179.2 179.2 0 15.945-2.083 31.404-5.99 46.119l0.282-1.251 148.48 108.544zM179.2 614.4c-42.415 0-76.8 34.385-76.8 76.8s34.385 76.8 76.8 76.8v0c42.415 0 76.8-34.385 76.8-76.8s-34.385-76.8-76.8-76.8v0zM179.2 153.6c-42.415 0-76.8 34.385-76.8 76.8s34.385 76.8 76.8 76.8v0c42.415 0 76.8-34.385 76.8-76.8s-34.385-76.8-76.8-76.8v0zM773.12 737.792c25.974 17.548 57.63 28.603 91.759 30.193l0.401 0.015h158.72l-384-281.6-104.96 76.8 238.080 174.592z" />
<glyph unicode="&#xe976;" glyph-name="edit-pencil" d="M629.76 783.36l204.8-204.8-629.76-629.76h-204.8v204.8l629.76 629.76zM701.44 855.040l117.76 117.76 204.8-204.8-117.76-117.76-204.8 204.8z" />
<glyph unicode="&#xe977;" glyph-name="envelope" d="M921.6 870.4c56.554 0 102.4-45.846 102.4-102.4v0-614.4c0-56.554-45.846-102.4-102.4-102.4v0h-819.2c-56.554 0-102.4 45.846-102.4 102.4v0 614.4c0 56.32 46.080 102.4 102.4 102.4h819.2zM697.856 404.48l326.144-250.88v102.4l-262.144 199.68 262.144 209.92v102.4l-512-409.6-512 409.6v-102.4l262.144-209.92-262.144-199.68v-102.4l326.144 250.88 185.856-148.48 185.856 148.48z" />
<glyph unicode="&#xe978;" glyph-name="exclamation-outline" d="M150.016 98.816c-96.436 93.233-156.308 223.762-156.308 368.276 0 282.77 229.23 512 512 512 144.514 0 275.043-59.872 368.137-156.164l0.138-0.144c88.925-91.979 143.724-217.436 143.724-355.692 0-282.77-229.23-512-512-512-138.256 0-263.713 54.799-355.836 143.863l0.144-0.138zM801.792 171.008c74.164 74.164 120.036 176.621 120.036 289.792 0 226.342-183.486 409.828-409.828 409.828-113.171 0-215.628-45.872-289.792-120.036v0c-74.164-74.164-120.036-176.621-120.036-289.792 0-226.342 183.486-409.828 409.828-409.828 113.171 0 215.628 45.872 289.792 120.036v0zM460.8 716.8h102.4v-307.2h-102.4v307.2zM460.8 307.2h102.4v-102.4h-102.4v102.4z" />
<glyph unicode="&#xe979;" glyph-name="exclamation-solid" d="M150.016 98.816c-96.436 93.233-156.308 223.762-156.308 368.276 0 282.77 229.23 512 512 512 144.514 0 275.043-59.872 368.137-156.164l0.138-0.144c88.925-91.979 143.724-217.436 143.724-355.692 0-282.77-229.23-512-512-512-138.256 0-263.713 54.799-355.836 143.863l0.144-0.138zM460.8 716.8v-307.2h102.4v307.2h-102.4zM460.8 307.2v-102.4h102.4v102.4h-102.4z" />
<glyph unicode="&#xe97a;" glyph-name="folder" d="M0 768c0 56.32 46.080 102.4 102.4 102.4h358.4l102.4-102.4h358.4c56.554 0 102.4-45.846 102.4-102.4v0-512c0-56.554-45.846-102.4-102.4-102.4v0h-819.2c-56.554 0-102.4 45.846-102.4 102.4v0 614.4z" />
<glyph unicode="&#xe97b;" glyph-name="folder-outline" d="M0 768c0 56.32 46.080 102.4 102.4 102.4h358.4l102.4-102.4h358.4c56.554 0 102.4-45.846 102.4-102.4v0-512c0-56.554-45.846-102.4-102.4-102.4v0h-819.2c-56.554 0-102.4 45.846-102.4 102.4v0 614.4zM102.4 665.6v-512h819.2v512h-819.2z" />
<glyph unicode="&#xe97c;" glyph-name="folder-outline-add" d="M0 768c0 56.32 46.080 102.4 102.4 102.4h358.4l102.4-102.4h358.4c56.554 0 102.4-45.846 102.4-102.4v0-512c0-56.554-45.846-102.4-102.4-102.4v0h-819.2c-56.554 0-102.4 45.846-102.4 102.4v0 614.4zM102.4 665.6v-512h819.2v512h-819.2zM460.8 460.8v102.4h102.4v-102.4h102.4v-102.4h-102.4v-102.4h-102.4v102.4h-102.4v102.4h102.4z" />
<glyph unicode="&#xe97d;" glyph-name="format-bold" d="M153.6 0v921.6h409.6c0.079 0 0.171 0 0.264 0 141.385 0 256-114.615 256-256 0-61.578-21.741-118.077-57.966-162.242l0.358 0.45c66.369-52.013 108.62-132.176 108.62-222.208 0-155.523-126.077-281.6-281.6-281.6-0.027 0-0.054 0-0.080 0h-435.195zM537.6 409.6h-179.2v-256h179.2c70.692 0 128 57.308 128 128s-57.308 128-128 128v0zM358.4 768v-204.8h153.6c56.554 0 102.4 45.846 102.4 102.4s-45.846 102.4-102.4 102.4v0h-153.6z" />
<glyph unicode="&#xe97e;" glyph-name="format-font-size" d="M819.2 512v-409.6h-102.4v409.6h-204.8v102.4h512v-102.4h-204.8zM409.6 716.8v-614.4h-102.4v614.4h-307.2v102.4h768v-102.4h-358.4z" />
<glyph unicode="&#xe97f;" glyph-name="format-italic" d="M409.6 921.6h460.8v-102.4h-460.8v102.4zM563.2 819.2h153.6l-307.2-716.8h-153.6l307.2 716.8zM102.4 102.4h460.8v-102.4h-460.8v102.4z" />
<glyph unicode="&#xe980;" glyph-name="format-text-size" d="M819.2 512v-409.6h-102.4v409.6h-204.8v102.4h512v-102.4h-204.8zM409.6 716.8v-614.4h-102.4v614.4h-307.2v102.4h768v-102.4h-358.4z" />
<glyph unicode="&#xe981;" glyph-name="format-underline" d="M819.2 512c0-169.662-137.538-307.2-307.2-307.2s-307.2 137.538-307.2 307.2v0 409.6h153.6v-409.6c0-84.831 68.769-153.6 153.6-153.6s153.6 68.769 153.6 153.6v0 409.6h153.6v-409.6zM102.4 102.4h819.2v-102.4h-819.2v102.4z" />
<glyph unicode="&#xe982;" glyph-name="heart" d="M512 807.936l-31.232 30.72c-50.338 47.679-118.487 76.997-193.485 76.997-155.523 0-281.6-126.077-281.6-281.6 0-74.87 29.219-142.916 76.875-193.356l-0.126 0.135 429.568-429.568 429.568 430.080c47.53 50.306 76.749 118.352 76.749 193.221 0 155.523-126.077 281.6-281.6 281.6-74.997 0-143.147-29.318-193.613-77.118l0.129 0.121-31.232-31.232z" />
<glyph unicode="&#xe983;" glyph-name="home" d="M409.6-51.2h-256v512h-153.6l512 512 512-512h-153.6v-512h-256v307.2h-204.8v-307.2z" />
<glyph unicode="&#xe984;" glyph-name="inbox-full" d="M716.8 256h204.8v614.4h-819.2v-614.4h204.8c0-56.32 46.080-102.4 102.4-102.4h204.8c56.554 0 102.4 45.846 102.4 102.4v0zM0 870.4c0 56.32 46.080 102.4 102.4 102.4h819.2c56.554 0 102.4-45.846 102.4-102.4v0-819.2c0-56.554-45.846-102.4-102.4-102.4v0h-819.2c-56.554 0-102.4 45.846-102.4 102.4v0 819.2zM204.8 768h614.4v-102.4h-614.4v102.4zM204.8 614.4h614.4v-102.4h-614.4v102.4zM204.8 460.8h614.4v-102.4h-614.4v102.4z" />
<glyph unicode="&#xe985;" glyph-name="indent-decrease" d="M51.2 921.6h921.6v-102.4h-921.6v102.4zM358.4 512h614.4v-102.4h-614.4v102.4zM51.2 102.4h921.6v-102.4h-921.6v102.4zM358.4 716.8h614.4v-102.4h-614.4v102.4zM358.4 307.2h614.4v-102.4h-614.4v102.4zM256 665.6v-409.6l-204.8 204.8 204.8 204.8z" />
<glyph unicode="&#xe986;" glyph-name="indent-increase" d="M51.2 921.6h921.6v-102.4h-921.6v102.4zM358.4 512h614.4v-102.4h-614.4v102.4zM51.2 102.4h921.6v-102.4h-921.6v102.4zM358.4 716.8h614.4v-102.4h-614.4v102.4zM358.4 307.2h614.4v-102.4h-614.4v102.4zM51.2 665.6l204.8-204.8-204.8-204.8v409.6z" />
<glyph unicode="&#xe987;" glyph-name="information-outline" d="M150.016 98.816c-96.436 93.233-156.308 223.762-156.308 368.276 0 282.77 229.23 512 512 512 144.514 0 275.043-59.872 368.137-156.164l0.138-0.144c88.925-91.979 143.724-217.436 143.724-355.692 0-282.77-229.23-512-512-512-138.256 0-263.713 54.799-355.836 143.863l0.144-0.138zM801.792 171.008c74.164 74.164 120.036 176.621 120.036 289.792 0 226.342-183.486 409.828-409.828 409.828-113.171 0-215.628-45.872-289.792-120.036v0c-74.164-74.164-120.036-176.621-120.036-289.792 0-226.342 183.486-409.828 409.828-409.828 113.171 0 215.628 45.872 289.792 120.036v0zM460.8 409.6v102.4h102.4v-307.2h-102.4v204.8zM460.8 716.8h102.4v-102.4h-102.4v102.4z" />
<glyph unicode="&#xe988;" glyph-name="information-solid" d="M150.016 98.816c-96.436 93.233-156.308 223.762-156.308 368.276 0 282.77 229.23 512 512 512 144.514 0 275.043-59.872 368.137-156.164l0.138-0.144c88.925-91.979 143.724-217.436 143.724-355.692 0-282.77-229.23-512-512-512-138.256 0-263.713 54.799-355.836 143.863l0.144-0.138zM460.8 409.6v-204.8h102.4v307.2h-102.4v-102.4zM460.8 716.8v-102.4h102.4v102.4h-102.4z" />
<glyph unicode="&#xe989;" glyph-name="key" d="M627.712 371.712l-115.712-115.712h-102.4v-102.4h-102.4v-102.4l-102.4-102.4h-204.8v204.8l422.912 422.912c-8.392 26.681-13.227 57.362-13.227 89.173 0 169.662 137.538 307.2 307.2 307.2s307.2-137.538 307.2-307.2c0-169.662-137.538-307.2-307.2-307.2-31.811 0-62.492 4.835-91.349 13.81l2.176-0.583zM876.544 608.256c27.756 27.789 44.921 66.162 44.921 108.544 0 84.783-68.692 153.523-153.457 153.6h-0.007c-42.4-0.038-80.772-17.251-108.542-45.054l-0.002-0.002 217.088-217.088z" />
</font>
</defs>
</svg>
